<?xml version="1.0" encoding="UTF-8"?><svg id="Layer_1" xmlns="http://www.w3.org/2000/svg" viewBox="0 0 3000 2000"><defs><style>.cls-1{stroke-width:6px;}.cls-1,.cls-2{stroke-linecap:round;}.cls-1,.cls-2,.cls-3{fill:none;stroke:#fff;}.cls-1,.cls-3{stroke-miterlimit:10;}.cls-4{fill:#fff;}.cls-5{fill:#0b1dee;}.cls-2{stroke-linejoin:bevel;}.cls-2,.cls-3{stroke-width:10px;}</style></defs><circle class="cls-5" cx="398.49" cy="910.58" r="272.92"/><path class="cls-3" d="m266.09,1103.47c6.64-16.02-1.08-34.21-6.07-49.56-4.37-13.44-10.78-33.25-1.27-45.93,11.33-15.1,36.13-8.08,51.11-4.1,16.18,4.31,42.6,11.99,54.52-4.74,5.73-8.04,4.63-18.6,2.56-27.68-2.43-10.64-6.65-20.75-9.81-31.18-2.97-9.8-5.78-21.08-3.06-31.26,2.91-10.89,12.83-16.42,23.46-17.58,19.5-2.12,38.82,6.29,57.47,10.69,19.2,4.53,40.07,8.39,59.33,2.01,10.82-3.59,20-10.73,26.3-20.19,6.51-9.77,10.17-21.03,14.61-31.81,9.41-22.85,23.56-41.67,45.12-54.31,5.12-3,10.47-5.61,15.99-7.8-3.93,8.63-7.86,17.27-11.8,25.9"/><path class="cls-3" d="m214.58,1055.58c15.5-7.79,34.2-1.41,49.87,2.45,13.72,3.38,33.94,8.34,45.9-2.07,14.24-12.4,5.44-36.62.38-51.27-5.47-15.82-15.05-41.62.77-54.72,7.61-6.3,18.22-5.97,27.42-4.56,10.79,1.65,21.18,5.13,31.81,7.53,9.99,2.26,21.45,4.23,31.4.78,10.65-3.69,15.45-13.98,15.83-24.67.7-19.6-9.09-38.26-14.83-56.54-5.91-18.82-11.28-39.35-6.31-59.03,2.79-11.05,9.25-20.72,18.23-27.7,9.27-7.2,20.24-11.67,30.66-16.88,22.11-11.04,39.85-26.52,50.89-48.94,2.62-5.32,4.83-10.85,6.62-16.51-8.33,4.55-16.65,9.1-24.98,13.64"/><line class="cls-2" x1="539.67" y1="757" x2="436.83" y2="867.6"/><path class="cls-4" d="m555.7,739.76c-10.55,5.31-25.04,10.6-36.28,11.78l18.15,7.72,9.01,17.54c.36-11.3,4.58-26.13,9.12-37.04Z"/><line class="cls-1" x1="375.23" y1="892.78" x2="391.29" y2="907.71"/><line class="cls-1" x1="377.91" y1="917.34" x2="409.07" y2="946.31"/><line class="cls-1" x1="355.42" y1="918.49" x2="381.73" y2="942.96"/><line class="cls-1" x1="341.24" y1="961.53" x2="365.41" y2="984.01"/><line class="cls-1" x1="307.36" y1="952.1" x2="338.52" y2="981.07"/><line class="cls-1" x1="319.23" y1="985.2" x2="343.4" y2="1007.68"/><line class="cls-1" x1="275.81" y1="999.69" x2="302.4" y2="1024.42"/><line class="cls-1" x1="280.69" y1="1026.3" x2="311.85" y2="1055.27"/><line class="cls-1" x1="253.8" y1="1023.36" x2="269.86" y2="1038.3"/><circle class="cls-1" cx="402.27" cy="917.92" r=".13"/><circle class="cls-1" cx="348.74" cy="990.58" r=".13"/><circle class="cls-1" cx="280.31" cy="1048.18" r=".13"/><path class="cls-5" d="m1938.67,1113.8v-172.6h42.68v126.42c49.86-2.59,98.59,6.81,147.24-12.86-7.4-9.05-13.79-16.92-20.24-24.74-50.89-61.75-100.64-124.49-153.31-184.69-17.97-20.53-17.97-41.06-16.23-65.93,16.43,0,32.22-.31,47.99.06,38.81.92,78.05-1.09,116.34,3.94,75.03,9.85,125.87,68.3,131.49,144,3.52,47.34-3.53,91.57-34.58,129.21-30.06,36.43-70.65,54.27-116.62,56.65-47.6,2.46-95.43.55-144.76.55Zm60.84-290.37c57.05,69.58,111.68,136.22,166.44,203.01,17.71-18.89,25.02-40.21,27.02-76.93,3.1-56.86-25.44-99.93-79.38-117.97-35.79-11.97-73-7.34-114.09-8.11Z"/><path class="cls-5" d="m783.69,986.9v126.77h-43v-172.72h100.36c-3.43-4.75-5.18-7.68-7.42-10.18-26.56-29.6-52.74-59.56-80.05-88.46-10.36-10.96-16.1-22.04-14.25-37.2.95-7.77.17-15.75.17-24.35,4-.53,7.09-1.3,10.18-1.31,41.21-.07,82.44-.52,123.64.09,50.38.76,85.98,30.7,96.09,79.6,10.61,51.33-11.82,100.14-56.89,118.71-14.67,6.05-31.7,7.82-47.8,8.66-26.1,1.37-52.32.37-81.03.37Zm13.18-159.13c31.58,35.07,61.95,69.21,93.09,102.64,2.48,2.66,11.32,2.45,15.28.19,18.46-10.51,27.35-35.56,22.7-60.39-4.3-23.01-19.33-40.14-42.71-41.92-28.58-2.18-57.45-.52-88.37-.52Z"/><path class="cls-5" d="m1296.92,1030.72c29.64,26.71,61.37,40.78,96.99,45.64,31.2,4.26,61.07-.13,86.48-20.18,29.59-23.35,25.87-59.03-9.03-73.52-22.65-9.41-47.54-13.41-71.41-19.92-17.13-4.67-34.54-8.56-51.27-14.41-40.03-14-59.65-42.06-59.91-83.66-.23-37.65,20.86-68.25,58.75-82.14,50.44-18.48,100.18-14.38,148.81,7.6,10.85,4.9,16.74,11.75,15.2,24.89-1.43,12.26-.31,24.82-.31,40.78-7.9-5.59-12.61-9.05-17.43-12.33-35.89-24.39-75.23-32.2-117.72-23.78-6.36,1.26-12.67,3.58-18.53,6.38-15.57,7.44-27.76,18.36-28.66,36.76-.96,19.63,8.07,35.7,25.95,42.88,21.53,8.65,44.44,13.96,66.86,20.3,20.67,5.85,42,9.75,62.15,16.98,53.04,19.02,72.07,80.5,41.07,128.16-19.76,30.38-49.45,43.49-83.44,48.25-43.17,6.04-84.85.33-124.51-18.88-13.88-6.72-22.84-14.57-20.35-31.85,1.63-11.31.31-23.04.31-37.96Z"/><path class="cls-5" d="m2760.08,1113.79h-207.18v-229.06h41.72c.53,9.9,1.07,19.9,1.66,30.8,1.86-1.14,3.23-1.54,3.88-2.45,24.08-33.86,57.47-41.37,95.66-32.26,39.23,9.36,62.26,36.1,64.58,75.19,3.06,51.69,1.26,103.66,1.5,155.52,0,.36-.55.72-1.82,2.27Zm-41.09-39.01c0-28.01.38-54.63-.16-81.23-.25-12.57-1.46-25.24-3.65-37.61-4-22.56-18.03-37.85-37.13-40.72-23.76-3.57-44.8,2.77-61.14,20.74-5.86,6.44-11.34,14.19-14.08,22.32-12.86,38.1-5.47,77.3-7.11,116.51h123.28Z"/><path class="cls-5" d="m1016.91,1003.16c-3.94-65.47,45.29-122.44,109.14-126.27,63.8-3.83,118.93,48.71,122.59,116.84,3.56,66.04-46.96,124.44-111.13,128.47-64.94,4.08-116.24-46.56-120.6-119.05Zm113.63,77.6c33.43.17,63.28-24.09,72.86-59.23,11.14-40.86-10.55-85.03-48.48-98.74-36.77-13.29-74.91,4.48-91.87,42.82-23.16,52.35,13.49,114.88,67.49,115.15Z"/><path class="cls-5" d="m2511.98,999.97c.09,84.63-82.43,144.2-158.66,114.53-45.63-17.76-76.2-68.04-73.18-120.36,3.29-56.88,37.6-101.69,87.48-114.25,73.22-18.43,144.27,40.67,144.35,120.08Zm-117.61,80.79c33.32-.08,63.13-24.71,72.4-59.83,10.81-40.95-11.18-84.89-49.24-98.37-36.22-12.83-73.86,4.69-90.96,42.34-23.92,52.68,13.12,115.99,67.8,115.86Z"/><path class="cls-5" d="m1768.86,1049.5c9.8,8.96,19.69,18,29.49,26.96-30.56,40.16-83.91,55.87-131.73,39.56-49.8-16.98-82.41-63.22-82.46-116.94-.05-51.93,33.5-98.97,82.41-115.56,47.33-16.05,100.15-1.07,129.83,37.76-9.59,9.06-19.3,18.23-29.72,28.06-18.13-19.42-38.48-32.82-65.35-31.13-20.49,1.29-37.88,9.94-51.82,25.01-29.25,31.61-28.98,81.99.44,113.6,31.56,33.9,69.35,31.72,118.9-7.32Z"/><path class="cls-5" d="m1886.08,1113.65h-42.29v-228.65h42.29v228.65Z"/><path class="cls-5" d="m1705.24,1033.75c-19,.17-33.3-13.32-33.69-31.8-.38-17.44,15.38-33.53,32.67-33.36,18.81.18,32.37,13.95,32.45,32.97.07,18.16-13.47,32.03-31.43,32.2Z"/><path class="cls-5" d="m1886.29,827.21h-42.51v-46.88h42.51v46.88Z"/><path class="cls-5" d="m1165.12,1000.67c.13,18.09-13.45,32.3-31.16,32.59-19.54.32-34.06-13.82-33.84-32.97.2-17.45,14.76-31.92,32.21-32,19.07-.09,32.65,13.32,32.79,32.38Z"/><path class="cls-5" d="m2428.33,1001.73c-.25,17.85-14.4,31.71-32.23,31.56-18.86-.16-32.83-14.09-32.79-32.66.05-18.08,15.15-32.74,33.28-32.32,19.01.45,32,14.13,31.74,33.42Z"/></svg>