<svg width="36" height="26" viewBox="0 0 36 26" fill="none" xmlns="http://www.w3.org/2000/svg">
<path d="M31.0725 3.2514C31.0725 3.2514 27.3263 0.335196 22.8937 0L22.5 0.793296C26.505 1.76536 28.3387 3.16201 30.2625 4.87151C26.955 3.19553 23.6812 1.62011 17.9887 1.62011C12.2962 1.62011 9.0225 3.19553 5.715 4.87151C7.63875 3.16201 9.82125 1.60894 13.4775 0.793296L13.0837 0C8.4375 0.435754 4.905 3.2514 4.905 3.2514C4.905 3.2514 0.72 9.28492 0 21.1285C4.21875 25.9665 10.6312 26 10.6312 26L11.97 24.2235C9.6975 23.4413 7.12125 22.0335 4.905 19.4972C7.54875 21.486 11.5538 23.5642 18 23.5642C24.4462 23.5642 28.44 21.4972 31.095 19.4972C28.8787 22.0335 26.3025 23.4413 24.03 24.2235L25.3687 26C25.3687 26 31.7812 25.9665 36 21.1285C35.2575 9.28492 31.0725 3.2514 31.0725 3.2514ZM12.6562 17.8771C11.07 17.8771 9.7875 16.4246 9.7875 14.6257C9.7875 12.8268 11.07 11.3743 12.6562 11.3743C14.2425 11.3743 15.525 12.8268 15.525 14.6257C15.525 16.4246 14.2425 17.8771 12.6562 17.8771ZM23.2987 17.8771C21.7125 17.8771 20.43 16.4246 20.43 14.6257C20.43 12.8268 21.7125 11.3743 23.2987 11.3743C24.885 11.3743 26.1675 12.8268 26.1675 14.6257C26.1675 16.4246 24.8738 17.8771 23.2987 17.8771Z" fill="#6256EC"/>
</svg>
