<?xml version="1.0" encoding="UTF-8"?><svg id="Layer_1" xmlns="http://www.w3.org/2000/svg" viewBox="0 0 1839 673.12"><defs><style>.cls-1{fill:#78dfec;}.cls-2{fill:#031072;}.cls-3,.cls-4{fill:#fff;}.cls-4{font-family:AcuminPro-Regular, 'Acumin Pro';font-size:21px;}.cls-5{letter-spacing:-.08em;}.cls-6{fill:#c3ebf0;}.cls-7{letter-spacing:-.02em;}.cls-8{letter-spacing:0em;}.cls-9{fill:#0b1dee;font-family:AcuminPro-Bold, 'Acumin Pro';font-size:90px;font-weight:700;}.cls-10{letter-spacing:0em;}.cls-11{letter-spacing:.01em;}.cls-12{letter-spacing:0em;}.cls-13{letter-spacing:0em;}</style></defs><rect class="cls-2" x="-23.71" y="-24.66" width="1883.06" height="722.54"/><path class="cls-6" d="M1226.08,124.45c12.06,0,21.33,9,21.33,20.61s-9.27,20.7-21.33,20.7h-12.06v21.69h-10.44v-63h22.5ZM1225.9,155.77c6.21,0,11.07-4.5,11.07-10.71s-4.86-10.62-11.07-10.62h-11.88v21.33h11.88Z"/><path class="cls-6" d="M1250.38,164.68c0-13.32,10.26-23.85,22.59-23.85s22.59,10.53,22.59,23.85-10.26,23.85-22.59,23.85-22.59-10.62-22.59-23.85ZM1285.75,164.68c0-8.64-5.76-14.67-12.78-14.67s-12.78,6.03-12.78,14.67,5.76,14.67,12.78,14.67,12.78-6.03,12.78-14.67Z"/><path class="cls-6" d="M1301.95,168.1h10.44c.63,6.48,4.95,10.98,12.69,10.98s11.25-3.69,11.25-8.28c0-13.95-32.94-7.38-32.94-29.79,0-9.99,7.74-17.64,20.88-17.64s21.06,8.73,21.6,19.89h-10.44c-.36-6.12-4.5-10.44-11.16-10.44s-10.44,3.6-10.44,8.37c0,13.68,32.94,6.66,32.94,29.34,0,10.26-7.74,18-21.78,18s-22.5-8.64-23.04-20.43Z"/><path class="cls-6" d="M1353.61,164.68c0-13.32,10.26-23.85,22.59-23.85,11.34,0,19.26,8.91,21.06,17.82h-9.9c-1.08-3.69-4.68-8.64-11.16-8.64-7.02,0-12.78,6.03-12.78,14.67s5.76,14.67,12.78,14.67c6.48,0,10.08-4.95,11.16-8.64h9.9c-1.8,8.82-9.72,17.82-21.06,17.82-12.33,0-22.59-10.62-22.59-23.85Z"/><path class="cls-6" d="M1404.73,129.76c0-3.33,2.61-5.85,5.85-5.85s5.76,2.52,5.76,5.85-2.52,5.76-5.76,5.76-5.85-2.52-5.85-5.76ZM1405.63,187.45v-45.54h9.9v45.54h-9.9Z"/><path class="cls-6" d="M1428.13,187.45v-63h19.08c17.28,0,31.05,13.77,31.05,31.5s-13.95,31.5-31.05,31.5h-19.08ZM1438.57,177.46h8.64c11.07,0,20.61-9.18,20.61-21.51s-9.54-21.51-20.61-21.51h-8.64v43.02Z"/><path class="cls-6" d="M1484.73,164.68c0-13.32,10.26-23.85,22.59-23.85s22.59,10.53,22.59,23.85-10.26,23.85-22.59,23.85-22.59-10.62-22.59-23.85ZM1520.11,164.68c0-8.64-5.76-14.67-12.78-14.67s-12.78,6.03-12.78,14.67,5.76,14.67,12.78,14.67,12.78-6.03,12.78-14.67Z"/><path class="cls-6" d="M1538.82,187.45v-45.54h7.38l1.8,5.04h.45c1.44-1.98,6.03-6.12,12.78-6.12,10.71,0,18.27,7.83,18.27,19.89v26.73h-9.81v-26.01c0-6.75-4.41-11.43-10.44-11.43s-10.53,4.68-10.53,11.43v26.01h-9.9Z"/><path class="cls-6" d="M1591.74,187.45v-63h19.08c17.28,0,31.05,13.77,31.05,31.5s-13.95,31.5-31.05,31.5h-19.08ZM1602.18,177.46h8.64c11.07,0,20.61-9.18,20.61-21.51s-9.54-21.51-20.61-21.51h-8.64v43.02Z"/><path class="cls-6" d="M1689.57,187.45l-5.13-14.13h-25.47l-5.13,14.13h-10.62l23.67-63h10.08l23.58,63h-10.98ZM1671.75,137.86l-9.36,25.83h18.63l-9.27-25.83Z"/><path class="cls-6" d="M1701.9,155.95c0-18.36,13.95-32.58,30.33-32.58s30.33,14.22,30.33,32.58-14.04,32.58-30.33,32.58-30.33-14.22-30.33-32.58ZM1752.13,155.95c0-13.23-9.27-22.59-19.89-22.59s-19.89,9.36-19.89,22.59,9.27,22.59,19.89,22.59,19.89-9.36,19.89-22.59Z"/><path class="cls-6" d="M1214.38,345.55c0,2.36.4,4.38,1.21,6.05.81,1.67,1.93,3.04,3.37,4.1,1.44,1.07,3.1,1.84,4.97,2.33,1.87.49,3.9.73,6.09.73,2.36,0,4.38-.27,6.05-.82,1.67-.55,3.02-1.25,4.06-2.12,1.04-.86,1.78-1.86,2.25-2.98.46-1.12.69-2.26.69-3.41,0-2.36-.53-4.1-1.6-5.23-1.07-1.12-2.23-1.91-3.5-2.38-2.19-.81-4.74-1.57-7.65-2.29-2.91-.72-6.5-1.65-10.76-2.81-2.65-.69-4.85-1.6-6.61-2.72-1.76-1.12-3.15-2.38-4.19-3.76s-1.77-2.85-2.2-4.41-.65-3.14-.65-4.75c0-3.11.65-5.8,1.94-8.08,1.3-2.27,3.01-4.16,5.14-5.66,2.13-1.5,4.55-2.61,7.26-3.33,2.71-.72,5.44-1.08,8.21-1.08,3.23,0,6.26.42,9.12,1.25,2.85.84,5.36,2.09,7.52,3.76,2.16,1.67,3.87,3.73,5.14,6.18,1.27,2.45,1.9,5.29,1.9,8.51h-10.8c-.29-3.97-1.64-6.78-4.06-8.42-2.42-1.64-5.5-2.46-9.24-2.46-1.27,0-2.56.13-3.89.39-1.33.26-2.54.69-3.63,1.3-1.09.6-2,1.43-2.72,2.46-.72,1.04-1.08,2.33-1.08,3.89,0,2.19.68,3.9,2.03,5.14,1.35,1.24,3.12,2.17,5.31,2.81.23.06,1.14.3,2.72.73,1.58.43,3.35.91,5.31,1.43,1.96.52,3.87,1.02,5.75,1.51,1.87.49,3.21.85,4.02,1.08,2.02.63,3.77,1.5,5.27,2.59,1.5,1.09,2.75,2.35,3.76,3.76,1.01,1.41,1.76,2.92,2.25,4.54.49,1.61.73,3.23.73,4.84,0,3.46-.71,6.41-2.12,8.86-1.41,2.45-3.27,4.45-5.57,6-2.3,1.56-4.92,2.69-7.86,3.41s-5.93,1.08-8.99,1.08c-3.51,0-6.83-.43-9.94-1.3s-5.82-2.19-8.12-3.97c-2.3-1.78-4.15-4.07-5.53-6.87-1.38-2.79-2.1-6.09-2.16-9.89h10.8Z"/><path class="cls-6" d="M1262.16,321.44h9.33v6.05h.17c1.38-2.59,3.31-4.45,5.79-5.57,2.48-1.12,5.15-1.69,8.04-1.69,3.51,0,6.58.62,9.2,1.86,2.62,1.24,4.79,2.94,6.52,5.1,1.73,2.16,3.02,4.68,3.89,7.56.86,2.88,1.3,5.96,1.3,9.25,0,3-.39,5.9-1.17,8.73s-1.96,5.31-3.54,7.47c-1.58,2.16-3.59,3.89-6,5.18-2.42,1.3-5.27,1.94-8.55,1.94-1.44,0-2.88-.13-4.32-.39-1.44-.26-2.82-.68-4.15-1.25-1.33-.58-2.55-1.31-3.67-2.2-1.12-.89-2.06-1.94-2.81-3.15h-.17v22.29h-9.85v-61.17ZM1296.54,343.82c0-2.02-.26-3.97-.78-5.88-.52-1.9-1.3-3.59-2.33-5.05-1.04-1.47-2.33-2.65-3.89-3.54-1.56-.89-3.34-1.34-5.36-1.34-4.15,0-7.27,1.44-9.38,4.32-2.1,2.88-3.15,6.71-3.15,11.49,0,2.25.27,4.33.82,6.26.55,1.93,1.37,3.59,2.46,4.97,1.09,1.38,2.4,2.48,3.93,3.28,1.53.81,3.3,1.21,5.31,1.21,2.25,0,4.15-.46,5.7-1.38,1.55-.92,2.84-2.12,3.84-3.58,1.01-1.47,1.73-3.14,2.16-5.01.43-1.87.65-3.79.65-5.75Z"/><path class="cls-6" d="M1352.1,356.18c0,1.21.16,2.07.48,2.59.32.52.94.78,1.86.78h1.04c.4,0,.86-.06,1.38-.17v6.83c-.35.12-.79.25-1.34.39-.55.14-1.11.27-1.68.39-.58.11-1.15.2-1.73.26-.58.06-1.07.09-1.47.09-2.02,0-3.69-.4-5.01-1.21-1.33-.81-2.19-2.22-2.59-4.23-1.96,1.9-4.36,3.28-7.21,4.15-2.85.86-5.6,1.3-8.25,1.3-2.02,0-3.95-.27-5.79-.82-1.84-.55-3.47-1.35-4.88-2.42-1.41-1.07-2.54-2.42-3.37-4.06-.84-1.64-1.25-3.56-1.25-5.75,0-2.76.5-5.01,1.51-6.74,1.01-1.73,2.33-3.08,3.97-4.06,1.64-.98,3.48-1.68,5.53-2.12,2.04-.43,4.1-.76,6.18-.99,1.79-.35,3.48-.59,5.1-.73,1.61-.14,3.04-.39,4.28-.73,1.24-.35,2.22-.88,2.94-1.6s1.08-1.8,1.08-3.24c0-1.27-.3-2.3-.91-3.11-.6-.81-1.35-1.43-2.25-1.86-.89-.43-1.89-.72-2.98-.86-1.09-.14-2.13-.22-3.11-.22-2.76,0-5.04.58-6.83,1.73-1.79,1.15-2.79,2.94-3.02,5.36h-9.85c.17-2.88.86-5.27,2.07-7.17,1.21-1.9,2.75-3.43,4.62-4.58,1.87-1.15,3.99-1.96,6.35-2.42,2.36-.46,4.78-.69,7.26-.69,2.19,0,4.35.23,6.48.69,2.13.46,4.05,1.21,5.75,2.25,1.7,1.04,3.07,2.38,4.1,4.02s1.55,3.64,1.55,6.01v22.98ZM1342.25,343.74c-1.5.98-3.34,1.57-5.53,1.77-2.19.2-4.38.5-6.57.91-1.04.17-2.04.42-3.02.73-.98.32-1.84.75-2.59,1.3-.75.55-1.34,1.27-1.77,2.16-.43.89-.65,1.97-.65,3.24,0,1.09.32,2.02.95,2.76.63.75,1.4,1.34,2.29,1.77.89.43,1.87.73,2.94.91,1.07.17,2.03.26,2.89.26,1.09,0,2.27-.14,3.54-.43,1.27-.29,2.46-.78,3.59-1.47,1.12-.69,2.06-1.57,2.81-2.64.75-1.07,1.12-2.38,1.12-3.93v-7.34Z"/><path class="cls-6" d="M1362.72,321.44h9.25v8.64h.17c.29-1.21.85-2.39,1.68-3.54.83-1.15,1.84-2.2,3.02-3.15,1.18-.95,2.49-1.71,3.93-2.29,1.44-.58,2.91-.86,4.41-.86,1.15,0,1.94.03,2.38.09.43.06.88.12,1.34.17v9.5c-.69-.11-1.4-.22-2.12-.3-.72-.09-1.43-.13-2.12-.13-1.67,0-3.24.33-4.71.99-1.47.66-2.75,1.64-3.84,2.94-1.09,1.3-1.96,2.89-2.59,4.8-.63,1.9-.95,4.09-.95,6.57v21.25h-9.85v-44.67Z"/><path class="cls-6" d="M1393.4,304.42h9.85v35.08l17.8-18.06h12.1l-17.11,16.42,18.75,28.25h-12.01l-13.65-21.69-5.88,5.7v15.98h-9.85v-61.69Z"/><text class="cls-9" transform="translate(1203.58 562.78)"><tspan x="0" y="0">?</tspan></text><path class="cls-1" d="M384.2,311.01c12.06,0,21.33,9,21.33,20.61s-9.27,20.7-21.33,20.7h-12.06v21.69h-10.44v-63h22.5ZM384.02,342.34c6.21,0,11.07-4.5,11.07-10.71s-4.86-10.62-11.07-10.62h-11.88v21.33h11.88Z"/><path class="cls-1" d="M408.5,351.25c0-13.32,10.26-23.85,22.59-23.85s22.59,10.53,22.59,23.85-10.26,23.85-22.59,23.85-22.59-10.62-22.59-23.85ZM443.87,351.25c0-8.64-5.76-14.67-12.78-14.67s-12.78,6.03-12.78,14.67,5.76,14.67,12.78,14.67,12.78-6.03,12.78-14.67Z"/><path class="cls-1" d="M459.62,360.16h9.72c.36,3.96,3.51,6.75,8.37,6.75s7.38-2.52,7.38-5.4c0-9.09-24.3-4.95-24.3-20.7,0-7.47,6.03-13.41,16.47-13.41s16.56,6.48,17.1,14.49h-9.72c-.45-3.78-2.79-6.3-7.38-6.3s-6.57,2.25-6.57,4.86c0,8.64,24.3,4.5,24.3,20.61,0,7.92-6.12,14.04-17.28,14.04s-17.64-6.84-18.09-14.94Z"/><path class="cls-1" d="M501.2,351.25c0-13.32,10.26-23.85,22.59-23.85,11.34,0,19.26,8.91,21.06,17.82h-9.9c-1.08-3.69-4.68-8.64-11.16-8.64-7.02,0-12.78,6.03-12.78,14.67s5.76,14.67,12.78,14.67c6.48,0,10.08-4.95,11.16-8.64h9.9c-1.8,8.82-9.72,17.82-21.06,17.82-12.33,0-22.59-10.62-22.59-23.85Z"/><path class="cls-1" d="M552.32,316.32c0-3.33,2.61-5.85,5.85-5.85s5.76,2.52,5.76,5.85-2.52,5.76-5.76,5.76-5.85-2.52-5.85-5.76ZM553.22,374.02v-45.54h9.9v45.54h-9.9Z"/><path class="cls-1" d="M571.94,351.25c0-13.86,9.72-23.85,20.97-23.85,6.93,0,11.88,4.23,12.87,5.85h.45v-22.23h9.9v63h-7.38l-1.8-5.13h-.45c-1.26,1.71-6.3,6.21-13.59,6.21-11.25,0-20.97-9.99-20.97-23.85ZM606.23,351.25c0-8.73-5.67-14.67-12.24-14.67s-12.24,5.94-12.24,14.67,5.67,14.67,12.24,14.67,12.24-5.94,12.24-14.67Z"/><path class="cls-1" d="M625.49,351.25c0-13.32,10.26-23.85,22.59-23.85s22.59,10.53,22.59,23.85-10.26,23.85-22.59,23.85-22.59-10.62-22.59-23.85ZM660.86,351.25c0-8.64-5.76-14.67-12.78-14.67s-12.78,6.03-12.78,14.67,5.76,14.67,12.78,14.67,12.78-6.03,12.78-14.67Z"/><path class="cls-1" d="M679.58,374.02v-45.54h7.38l1.8,5.04h.45c1.44-1.98,6.03-6.12,12.78-6.12,10.71,0,18.27,7.83,18.27,19.89v26.73h-9.81v-26.01c0-6.75-4.41-11.43-10.44-11.43s-10.53,4.68-10.53,11.43v26.01h-9.9Z"/><path class="cls-3" d="M540.94,539.74c-90.99,0-147.07-56.63-193.91-125.33,4.29-6.82,8.51-13.66,12.67-20.5,45.61,68.99,96.76,123.84,181.24,123.84s135.63-54.85,181.24-123.84c11.09-16.74,21.85-34.34,32.67-52.16,1.14-1.89,2.31-3.81,3.45-5.7,3.12-5.17,6.27-10.34,9.39-15.49,10.67-17.45,21.47-34.83,32.85-51.48,46.84-68.73,102.92-125.33,193.91-125.33,6.07,0,11,4.93,11,11s-4.93,11-11,11c-84.48,0-135.63,54.85-181.24,123.84-11.07,16.74-21.82,34.34-32.65,52.16-1.14,1.89-2.31,3.81-3.45,5.7-3.12,5.17-6.27,10.34-9.42,15.49-10.65,17.45-21.47,34.83-32.82,51.48-46.86,68.71-102.94,125.33-193.93,125.33Z"/><path class="cls-3" d="M268.67,289.56c-45.61-68.99-96.76-123.82-181.24-123.82-6.07,0-11-4.93-11-11s4.93-11,11-11c90.99,0,147.07,56.61,193.93,125.33-4.29,6.82-8.51,13.66-12.69,20.48Z"/><path class="cls-3" d="M994.45,539.74c-90.99,0-147.07-56.63-193.91-125.33,4.29-6.82,8.49-13.66,12.67-20.5,45.61,68.99,96.76,123.84,181.24,123.84,6.07,0,11,4.93,11,11s-4.93,11-11,11Z"/><path class="cls-3" d="M87.43,539.74c-6.07,0-11-4.93-11-11s4.93-11,11-11c84.48,0,135.63-54.82,181.24-123.82,11.09-16.76,21.85-34.34,32.67-52.18,1.14-1.89,2.31-3.81,3.45-5.7,3.12-5.17,6.27-10.34,9.39-15.49,10.67-17.45,21.47-34.83,32.85-51.48,46.84-68.73,102.92-125.33,193.91-125.33s147.07,56.61,193.93,125.33c-4.29,6.82-8.51,13.66-12.69,20.5-45.61-68.99-96.76-123.84-181.24-123.84s-135.63,54.85-181.24,123.84c-11.07,16.74-21.82,34.34-32.65,52.16-1.14,1.89-2.31,3.81-3.45,5.7-3.12,5.17-6.27,10.34-9.42,15.49-10.65,17.45-21.47,34.83-32.82,51.48-46.86,68.71-102.94,125.33-193.93,125.33Z"/><path class="cls-3" d="M977.64,154.9c0-6.08,4.92-11,11-11h174.91c6.08,0,11,4.92,11,11s-4.92,11-11,11h-174.91c-6.08,0-11-4.92-11-11Z"/><path class="cls-3" d="M977.64,528.89c0-6.08,4.92-11,11-11h174.91c6.08,0,11,4.92,11,11s-4.92,11-11,11h-174.91c-6.08,0-11-4.92-11-11Z"/><path class="cls-3" d="M846.27,341.74c0-6.08,4.92-11,11-11h306.27c6.08,0,11,4.92,11,11s-4.92,11-11,11h-306.27c-6.08,0-11-4.92-11-11Z"/><path class="cls-3" d="M1114.71,117.07c0-2.81,1.07-5.63,3.22-7.78,4.29-4.3,11.26-4.3,15.55,0l37.83,37.83c4.3,4.29,4.3,11.26,0,15.55-4.29,4.3-11.26,4.3-15.55,0l-37.83-37.83c-2.15-2.15-3.22-4.96-3.22-7.78Z"/><path class="cls-3" d="M1114.71,192.74c0-2.81,1.07-5.63,3.22-7.78l37.83-37.83c4.29-4.3,11.26-4.3,15.55,0,4.3,4.29,4.3,11.26,0,15.55l-37.83,37.83c-4.29,4.3-11.26,4.3-15.55,0-2.15-2.15-3.22-4.96-3.22-7.78Z"/><path class="cls-3" d="M1114.13,303.64c0-2.81,1.07-5.63,3.22-7.78,4.29-4.3,11.26-4.3,15.55,0l37.83,37.83c4.3,4.29,4.3,11.26,0,15.55-4.29,4.3-11.26,4.3-15.55,0l-37.83-37.83c-2.15-2.15-3.22-4.96-3.22-7.78Z"/><path class="cls-3" d="M1114.71,491.37c0-2.81,1.07-5.63,3.22-7.78,4.29-4.3,11.26-4.3,15.55,0l37.83,37.83c4.3,4.29,4.3,11.26,0,15.55-4.29,4.3-11.26,4.3-15.55,0l-37.83-37.83c-2.15-2.15-3.22-4.96-3.22-7.78Z"/><path class="cls-3" d="M1114.71,567.04c0-2.81,1.07-5.63,3.22-7.78l37.83-37.83c4.29-4.3,11.26-4.3,15.55,0,4.3,4.29,4.3,11.26,0,15.55l-37.83,37.83c-4.29,4.3-11.26,4.3-15.55,0-2.15-2.15-3.22-4.96-3.22-7.78Z"/><path class="cls-3" d="M1114.71,379.89c0-2.81,1.07-5.63,3.22-7.78l37.83-37.83c4.29-4.3,11.26-4.3,15.55,0,4.3,4.29,4.3,11.26,0,15.55l-37.83,37.83c-4.29,4.3-11.26,4.3-15.55,0-2.15-2.15-3.22-4.96-3.22-7.78Z"/><text class="cls-4" transform="translate(965.07 132.15)"><tspan x="0" y="0">O</tspan><tspan class="cls-8" x="15.77" y="0">P</tspan><tspan x="28.85" y="0">E</tspan><tspan class="cls-11" x="41.39" y="0">R</tspan><tspan class="cls-5" x="55.17" y="0">A</tspan><tspan x="67.26" y="0">TIONS</tspan></text><text class="cls-4" transform="translate(988.99 318.72)"><tspan class="cls-12" x="0" y="0">I</tspan><tspan x="5.92" y="0">P </tspan><tspan class="cls-13" x="24.44" y="0">P</tspan><tspan x="37.74" y="0">OOL</tspan></text><text class="cls-4" transform="translate(1000.27 478.84)"><tspan class="cls-7" x="0" y="0">T</tspan><tspan x="11.3" y="0">O BE </tspan><tspan class="cls-10" x="-37.66" y="25.2">A</tspan><tspan class="cls-12" x="-23.87" y="25.2">N</tspan><tspan x="-8.12" y="25.2">N</tspan><tspan class="cls-13" x="7.51" y="25.2">OU</tspan><tspan x="38.44" y="25.2">NCED</tspan></text></svg>