<?xml version="1.0" encoding="UTF-8"?><svg id="Layer_1" xmlns="http://www.w3.org/2000/svg" viewBox="0 0 1839 673.12"><defs><style>.cls-1{fill:#031072;}.cls-2{fill:#fff;}</style></defs><rect class="cls-1" x="-23.71" y="-24.66" width="1883.06" height="722.54"/><path class="cls-2" d="M1226.08,124.45c12.06,0,21.33,9,21.33,20.61s-9.27,20.7-21.33,20.7h-12.06v21.69h-10.44v-63h22.5ZM1225.9,155.77c6.21,0,11.07-4.5,11.07-10.71s-4.86-10.62-11.07-10.62h-11.88v21.33h11.88Z"/><path class="cls-2" d="M1250.38,164.68c0-13.32,10.26-23.85,22.59-23.85s22.59,10.53,22.59,23.85-10.26,23.85-22.59,23.85-22.59-10.62-22.59-23.85ZM1285.75,164.68c0-8.64-5.76-14.67-12.78-14.67s-12.78,6.03-12.78,14.67,5.76,14.67,12.78,14.67,12.78-6.03,12.78-14.67Z"/><path class="cls-2" d="M1301.95,168.1h10.44c.63,6.48,4.95,10.98,12.69,10.98s11.25-3.69,11.25-8.28c0-13.95-32.94-7.38-32.94-29.79,0-9.99,7.74-17.64,20.88-17.64s21.06,8.73,21.6,19.89h-10.44c-.36-6.12-4.5-10.44-11.16-10.44s-10.44,3.6-10.44,8.37c0,13.68,32.94,6.66,32.94,29.34,0,10.26-7.74,18-21.78,18s-22.5-8.64-23.04-20.43Z"/><path class="cls-2" d="M1353.61,164.68c0-13.32,10.26-23.85,22.59-23.85,11.34,0,19.26,8.91,21.06,17.82h-9.9c-1.08-3.69-4.68-8.64-11.16-8.64-7.02,0-12.78,6.03-12.78,14.67s5.76,14.67,12.78,14.67c6.48,0,10.08-4.95,11.16-8.64h9.9c-1.8,8.82-9.72,17.82-21.06,17.82-12.33,0-22.59-10.62-22.59-23.85Z"/><path class="cls-2" d="M1404.73,129.76c0-3.33,2.61-5.85,5.85-5.85s5.76,2.52,5.76,5.85-2.52,5.76-5.76,5.76-5.85-2.52-5.85-5.76ZM1405.63,187.45v-45.54h9.9v45.54h-9.9Z"/><path class="cls-2" d="M1428.13,187.45v-63h19.08c17.28,0,31.05,13.77,31.05,31.5s-13.95,31.5-31.05,31.5h-19.08ZM1438.57,177.46h8.64c11.07,0,20.61-9.18,20.61-21.51s-9.54-21.51-20.61-21.51h-8.64v43.02Z"/><path class="cls-2" d="M1484.73,164.68c0-13.32,10.26-23.85,22.59-23.85s22.59,10.53,22.59,23.85-10.26,23.85-22.59,23.85-22.59-10.62-22.59-23.85ZM1520.11,164.68c0-8.64-5.76-14.67-12.78-14.67s-12.78,6.03-12.78,14.67,5.76,14.67,12.78,14.67,12.78-6.03,12.78-14.67Z"/><path class="cls-2" d="M1538.82,187.45v-45.54h7.38l1.8,5.04h.45c1.44-1.98,6.03-6.12,12.78-6.12,10.71,0,18.27,7.83,18.27,19.89v26.73h-9.81v-26.01c0-6.75-4.41-11.43-10.44-11.43s-10.53,4.68-10.53,11.43v26.01h-9.9Z"/><path class="cls-2" d="M1591.74,187.45v-63h19.08c17.28,0,31.05,13.77,31.05,31.5s-13.95,31.5-31.05,31.5h-19.08ZM1602.18,177.46h8.64c11.07,0,20.61-9.18,20.61-21.51s-9.54-21.51-20.61-21.51h-8.64v43.02Z"/><path class="cls-2" d="M1689.57,187.45l-5.13-14.13h-25.47l-5.13,14.13h-10.62l23.67-63h10.08l23.58,63h-10.98ZM1671.75,137.86l-9.36,25.83h18.63l-9.27-25.83Z"/><path class="cls-2" d="M1701.9,155.95c0-18.36,13.95-32.58,30.33-32.58s30.33,14.22,30.33,32.58-14.04,32.58-30.33,32.58-30.33-14.22-30.33-32.58ZM1752.13,155.95c0-13.23-9.27-22.59-19.89-22.59s-19.89,9.36-19.89,22.59,9.27,22.59,19.89,22.59,19.89-9.36,19.89-22.59Z"/><path class="cls-2" d="M1214.38,345.55c0,2.36.4,4.38,1.21,6.05.81,1.67,1.93,3.04,3.37,4.1,1.44,1.07,3.1,1.84,4.97,2.33,1.87.49,3.9.73,6.09.73,2.36,0,4.38-.27,6.05-.82,1.67-.55,3.02-1.25,4.06-2.12,1.04-.86,1.78-1.86,2.25-2.98.46-1.12.69-2.26.69-3.41,0-2.36-.53-4.1-1.6-5.23-1.07-1.12-2.23-1.91-3.5-2.38-2.19-.81-4.74-1.57-7.65-2.29-2.91-.72-6.5-1.65-10.76-2.81-2.65-.69-4.85-1.6-6.61-2.72-1.76-1.12-3.15-2.38-4.19-3.76s-1.77-2.85-2.2-4.41-.65-3.14-.65-4.75c0-3.11.65-5.8,1.94-8.08,1.3-2.27,3.01-4.16,5.14-5.66,2.13-1.5,4.55-2.61,7.26-3.33,2.71-.72,5.44-1.08,8.21-1.08,3.23,0,6.26.42,9.12,1.25,2.85.84,5.36,2.09,7.52,3.76,2.16,1.67,3.87,3.73,5.14,6.18,1.27,2.45,1.9,5.29,1.9,8.51h-10.8c-.29-3.97-1.64-6.78-4.06-8.42-2.42-1.64-5.5-2.46-9.24-2.46-1.27,0-2.56.13-3.89.39-1.33.26-2.54.69-3.63,1.3-1.09.6-2,1.43-2.72,2.46-.72,1.04-1.08,2.33-1.08,3.89,0,2.19.68,3.9,2.03,5.14,1.35,1.24,3.12,2.17,5.31,2.81.23.06,1.14.3,2.72.73,1.58.43,3.35.91,5.31,1.43,1.96.52,3.87,1.02,5.75,1.51,1.87.49,3.21.85,4.02,1.08,2.02.63,3.77,1.5,5.27,2.59,1.5,1.09,2.75,2.35,3.76,3.76,1.01,1.41,1.76,2.92,2.25,4.54.49,1.61.73,3.23.73,4.84,0,3.46-.71,6.41-2.12,8.86-1.41,2.45-3.27,4.45-5.57,6-2.3,1.56-4.92,2.69-7.86,3.41s-5.93,1.08-8.99,1.08c-3.51,0-6.83-.43-9.94-1.3s-5.82-2.19-8.12-3.97c-2.3-1.78-4.15-4.07-5.53-6.87-1.38-2.79-2.1-6.09-2.16-9.89h10.8Z"/><path class="cls-2" d="M1262.16,321.44h9.33v6.05h.17c1.38-2.59,3.31-4.45,5.79-5.57,2.48-1.12,5.15-1.69,8.04-1.69,3.51,0,6.58.62,9.2,1.86,2.62,1.24,4.79,2.94,6.52,5.1,1.73,2.16,3.02,4.68,3.89,7.56.86,2.88,1.3,5.96,1.3,9.25,0,3-.39,5.9-1.17,8.73s-1.96,5.31-3.54,7.47c-1.58,2.16-3.59,3.89-6,5.18-2.42,1.3-5.27,1.94-8.55,1.94-1.44,0-2.88-.13-4.32-.39-1.44-.26-2.82-.68-4.15-1.25-1.33-.58-2.55-1.31-3.67-2.2-1.12-.89-2.06-1.94-2.81-3.15h-.17v22.29h-9.85v-61.17ZM1296.54,343.82c0-2.02-.26-3.97-.78-5.88-.52-1.9-1.3-3.59-2.33-5.05-1.04-1.47-2.33-2.65-3.89-3.54-1.56-.89-3.34-1.34-5.36-1.34-4.15,0-7.27,1.44-9.38,4.32-2.1,2.88-3.15,6.71-3.15,11.49,0,2.25.27,4.33.82,6.26.55,1.93,1.37,3.59,2.46,4.97,1.09,1.38,2.4,2.48,3.93,3.28,1.53.81,3.3,1.21,5.31,1.21,2.25,0,4.15-.46,5.7-1.38,1.55-.92,2.84-2.12,3.84-3.58,1.01-1.47,1.73-3.14,2.16-5.01.43-1.87.65-3.79.65-5.75Z"/><path class="cls-2" d="M1352.1,356.18c0,1.21.16,2.07.48,2.59.32.52.94.78,1.86.78h1.04c.4,0,.86-.06,1.38-.17v6.83c-.35.12-.79.25-1.34.39-.55.14-1.11.27-1.68.39-.58.11-1.15.2-1.73.26-.58.06-1.07.09-1.47.09-2.02,0-3.69-.4-5.01-1.21-1.33-.81-2.19-2.22-2.59-4.23-1.96,1.9-4.36,3.28-7.21,4.15-2.85.86-5.6,1.3-8.25,1.3-2.02,0-3.95-.27-5.79-.82-1.84-.55-3.47-1.35-4.88-2.42-1.41-1.07-2.54-2.42-3.37-4.06-.84-1.64-1.25-3.56-1.25-5.75,0-2.76.5-5.01,1.51-6.74,1.01-1.73,2.33-3.08,3.97-4.06,1.64-.98,3.48-1.68,5.53-2.12,2.04-.43,4.1-.76,6.18-.99,1.79-.35,3.48-.59,5.1-.73,1.61-.14,3.04-.39,4.28-.73,1.24-.35,2.22-.88,2.94-1.6s1.08-1.8,1.08-3.24c0-1.27-.3-2.3-.91-3.11-.6-.81-1.35-1.43-2.25-1.86-.89-.43-1.89-.72-2.98-.86-1.09-.14-2.13-.22-3.11-.22-2.76,0-5.04.58-6.83,1.73-1.79,1.15-2.79,2.94-3.02,5.36h-9.85c.17-2.88.86-5.27,2.07-7.17,1.21-1.9,2.75-3.43,4.62-4.58,1.87-1.15,3.99-1.96,6.35-2.42,2.36-.46,4.78-.69,7.26-.69,2.19,0,4.35.23,6.48.69,2.13.46,4.05,1.21,5.75,2.25,1.7,1.04,3.07,2.38,4.1,4.02s1.55,3.64,1.55,6.01v22.98ZM1342.25,343.74c-1.5.98-3.34,1.57-5.53,1.77-2.19.2-4.38.5-6.57.91-1.04.17-2.04.42-3.02.73-.98.32-1.84.75-2.59,1.3-.75.55-1.34,1.27-1.77,2.16-.43.89-.65,1.97-.65,3.24,0,1.09.32,2.02.95,2.76.63.75,1.4,1.34,2.29,1.77.89.43,1.87.73,2.94.91,1.07.17,2.03.26,2.89.26,1.09,0,2.27-.14,3.54-.43,1.27-.29,2.46-.78,3.59-1.47,1.12-.69,2.06-1.57,2.81-2.64.75-1.07,1.12-2.38,1.12-3.93v-7.34Z"/><path class="cls-2" d="M1362.72,321.44h9.25v8.64h.17c.29-1.21.85-2.39,1.68-3.54.83-1.15,1.84-2.2,3.02-3.15,1.18-.95,2.49-1.71,3.93-2.29,1.44-.58,2.91-.86,4.41-.86,1.15,0,1.94.03,2.38.09.43.06.88.12,1.34.17v9.5c-.69-.11-1.4-.22-2.12-.3-.72-.09-1.43-.13-2.12-.13-1.67,0-3.24.33-4.71.99-1.47.66-2.75,1.64-3.84,2.94-1.09,1.3-1.96,2.89-2.59,4.8-.63,1.9-.95,4.09-.95,6.57v21.25h-9.85v-44.67Z"/><path class="cls-2" d="M1393.4,304.42h9.85v35.08l17.8-18.06h12.1l-17.11,16.42,18.75,28.25h-12.01l-13.65-21.69-5.88,5.7v15.98h-9.85v-61.69Z"/><path class="cls-2" d="M1220.68,543.25v-1.71c0-5.94,2.43-10.44,9.09-16.38,3.69-3.33,4.86-6.03,4.86-9.18,0-3.42-1.98-6.21-6.3-6.21-5.13,0-6.84,3.51-7.29,7.83h-12.69c.45-7.56,5.22-17.82,20.16-17.73,14.76,0,19.08,9.54,19.08,16.56,0,5.67-1.8,9.54-8.28,15.57-3.87,3.6-5.13,6.57-5.13,10.26v.99h-13.5ZM1220.68,562.78v-14.94h13.5v14.94h-13.5Z"/><path class="cls-2" d="M407.21,313.2c10.58,0,18.71,7.9,18.71,18.08s-8.13,18.16-18.71,18.16h-10.58v19.03h-9.16v-55.27h19.74ZM407.06,340.67c5.45,0,9.71-3.95,9.71-9.4s-4.26-9.32-9.71-9.32h-10.42v18.71h10.42Z"/><path class="cls-2" d="M428.53,348.49c0-11.69,9-20.92,19.82-20.92s19.82,9.24,19.82,20.92-9,20.92-19.82,20.92-19.82-9.32-19.82-20.92ZM459.56,348.49c0-7.58-5.05-12.87-11.21-12.87s-11.21,5.29-11.21,12.87,5.05,12.87,11.21,12.87,11.21-5.29,11.21-12.87Z"/><path class="cls-2" d="M473.37,356.31h8.53c.32,3.47,3.08,5.92,7.34,5.92s6.47-2.21,6.47-4.74c0-7.97-21.32-4.34-21.32-18.16,0-6.55,5.29-11.76,14.45-11.76s14.53,5.68,15,12.71h-8.53c-.39-3.32-2.45-5.53-6.47-5.53s-5.76,1.97-5.76,4.26c0,7.58,21.32,3.95,21.32,18.08,0,6.95-5.37,12.32-15.16,12.32s-15.47-6-15.87-13.11Z"/><path class="cls-2" d="M509.85,348.49c0-11.69,9-20.92,19.82-20.92,9.95,0,16.9,7.82,18.48,15.63h-8.68c-.95-3.24-4.11-7.58-9.79-7.58-6.16,0-11.21,5.29-11.21,12.87s5.05,12.87,11.21,12.87c5.68,0,8.84-4.34,9.79-7.58h8.68c-1.58,7.74-8.53,15.63-18.48,15.63-10.82,0-19.82-9.32-19.82-20.92Z"/><path class="cls-2" d="M554.69,317.86c0-2.92,2.29-5.13,5.13-5.13s5.05,2.21,5.05,5.13-2.21,5.05-5.05,5.05-5.13-2.21-5.13-5.05ZM555.48,368.47v-39.95h8.69v39.95h-8.69Z"/><path class="cls-2" d="M571.9,348.49c0-12.16,8.53-20.92,18.4-20.92,6.08,0,10.42,3.71,11.29,5.13h.39v-19.5h8.69v55.27h-6.47l-1.58-4.5h-.39c-1.1,1.5-5.53,5.45-11.92,5.45-9.87,0-18.4-8.76-18.4-20.92ZM601.98,348.49c0-7.66-4.97-12.87-10.74-12.87s-10.74,5.21-10.74,12.87,4.97,12.87,10.74,12.87,10.74-5.21,10.74-12.87Z"/><path class="cls-2" d="M618.88,348.49c0-11.69,9-20.92,19.82-20.92s19.82,9.24,19.82,20.92-9,20.92-19.82,20.92-19.82-9.32-19.82-20.92ZM649.91,348.49c0-7.58-5.05-12.87-11.21-12.87s-11.21,5.29-11.21,12.87,5.05,12.87,11.21,12.87,11.21-5.29,11.21-12.87Z"/><path class="cls-2" d="M666.33,368.47v-39.95h6.47l1.58,4.42h.39c1.26-1.74,5.29-5.37,11.21-5.37,9.4,0,16.03,6.87,16.03,17.45v23.45h-8.61v-22.82c0-5.92-3.87-10.03-9.16-10.03s-9.24,4.11-9.24,10.03v22.82h-8.69Z"/><path class="cls-2" d="M540.94,539.74c-90.99,0-147.07-56.63-193.91-125.33,4.29-6.82,8.51-13.66,12.67-20.5,45.61,68.99,96.76,123.84,181.24,123.84s135.63-54.85,181.24-123.84c11.09-16.74,21.85-34.34,32.67-52.16,1.14-1.89,2.31-3.81,3.45-5.7,3.12-5.17,6.27-10.34,9.39-15.49,10.67-17.45,21.47-34.83,32.85-51.48,46.84-68.73,102.92-125.33,193.91-125.33,6.07,0,11,4.93,11,11s-4.93,11-11,11c-84.48,0-135.63,54.85-181.24,123.84-11.07,16.74-21.82,34.34-32.65,52.16-1.14,1.89-2.31,3.81-3.45,5.7-3.12,5.17-6.27,10.34-9.42,15.49-10.65,17.45-21.47,34.83-32.82,51.48-46.86,68.71-102.94,125.33-193.93,125.33Z"/><path class="cls-2" d="M268.67,289.56c-45.61-68.99-96.76-123.82-181.24-123.82-6.07,0-11-4.93-11-11s4.93-11,11-11c90.99,0,147.07,56.61,193.93,125.33-4.29,6.82-8.51,13.66-12.69,20.48Z"/><path class="cls-2" d="M994.45,539.74c-90.99,0-147.07-56.63-193.91-125.33,4.29-6.82,8.49-13.66,12.67-20.5,45.61,68.99,96.76,123.84,181.24,123.84,6.07,0,11,4.93,11,11s-4.93,11-11,11Z"/><path class="cls-2" d="M87.43,539.74c-6.07,0-11-4.93-11-11s4.93-11,11-11c84.48,0,135.63-54.82,181.24-123.82,11.09-16.76,21.85-34.34,32.67-52.18,1.14-1.89,2.31-3.81,3.45-5.7,3.12-5.17,6.27-10.34,9.39-15.49,10.67-17.45,21.47-34.83,32.85-51.48,46.84-68.73,102.92-125.33,193.91-125.33s147.07,56.61,193.93,125.33c-4.29,6.82-8.51,13.66-12.69,20.5-45.61-68.99-96.76-123.84-181.24-123.84s-135.63,54.85-181.24,123.84c-11.07,16.74-21.82,34.34-32.65,52.16-1.14,1.89-2.31,3.81-3.45,5.7-3.12,5.17-6.27,10.34-9.42,15.49-10.65,17.45-21.47,34.83-32.82,51.48-46.86,68.71-102.94,125.33-193.93,125.33Z"/><path class="cls-2" d="M977.64,154.9c0-6.08,4.92-11,11-11h174.91c6.08,0,11,4.92,11,11s-4.92,11-11,11h-174.91c-6.08,0-11-4.92-11-11Z"/><path class="cls-2" d="M977.64,528.89c0-6.08,4.92-11,11-11h174.91c6.08,0,11,4.92,11,11s-4.92,11-11,11h-174.91c-6.08,0-11-4.92-11-11Z"/><path class="cls-2" d="M846.27,341.74c0-6.08,4.92-11,11-11h306.27c6.08,0,11,4.92,11,11s-4.92,11-11,11h-306.27c-6.08,0-11-4.92-11-11Z"/><path class="cls-2" d="M1114.71,117.07c0-2.81,1.07-5.63,3.22-7.78,4.29-4.3,11.26-4.3,15.55,0l37.83,37.83c4.3,4.29,4.3,11.26,0,15.55-4.29,4.3-11.26,4.3-15.55,0l-37.83-37.83c-2.15-2.15-3.22-4.96-3.22-7.78Z"/><path class="cls-2" d="M1114.71,192.74c0-2.81,1.07-5.63,3.22-7.78l37.83-37.83c4.29-4.3,11.26-4.3,15.55,0,4.3,4.29,4.3,11.26,0,15.55l-37.83,37.83c-4.29,4.3-11.26,4.3-15.55,0-2.15-2.15-3.22-4.96-3.22-7.78Z"/><path class="cls-2" d="M1114.13,303.64c0-2.81,1.07-5.63,3.22-7.78,4.29-4.3,11.26-4.3,15.55,0l37.83,37.83c4.3,4.29,4.3,11.26,0,15.55-4.29,4.3-11.26,4.3-15.55,0l-37.83-37.83c-2.15-2.15-3.22-4.96-3.22-7.78Z"/><path class="cls-2" d="M1114.71,491.37c0-2.81,1.07-5.63,3.22-7.78,4.29-4.3,11.26-4.3,15.55,0l37.83,37.83c4.3,4.29,4.3,11.26,0,15.55-4.29,4.3-11.26,4.3-15.55,0l-37.83-37.83c-2.15-2.15-3.22-4.96-3.22-7.78Z"/><path class="cls-2" d="M1114.71,567.04c0-2.81,1.07-5.63,3.22-7.78l37.83-37.83c4.29-4.3,11.26-4.3,15.55,0,4.3,4.29,4.3,11.26,0,15.55l-37.83,37.83c-4.29,4.3-11.26,4.3-15.55,0-2.15-2.15-3.22-4.96-3.22-7.78Z"/><path class="cls-2" d="M1114.71,379.89c0-2.81,1.07-5.63,3.22-7.78l37.83-37.83c4.29-4.3,11.26-4.3,15.55,0,4.3,4.29,4.3,11.26,0,15.55l-37.83,37.83c-4.29,4.3-11.26,4.3-15.55,0-2.15-2.15-3.22-4.96-3.22-7.78Z"/><path class="cls-2" d="M979.72,124.76c0,4.03-2.25,7.6-6.84,7.6-4.3,0-6.7-3.32-6.7-7.52s2.44-7.52,6.87-7.52c4.12,0,6.68,3.09,6.68,7.43ZM968.22,124.79c0,3.15,1.6,5.92,4.75,5.92,3.38,0,4.75-2.79,4.75-5.9s-1.53-5.82-4.75-5.82-4.75,2.69-4.75,5.79Z"/><path class="cls-2" d="M982.77,117.54h5.54c2.83,0,4.79,1.6,4.79,4.26,0,2.83-2.06,4.35-4.91,4.35h-3.46v6h-1.95v-14.61ZM984.72,124.51h3.38c1.99,0,3-.97,3-2.67,0-1.79-1.22-2.67-2.94-2.67h-3.44v5.33Z"/><path class="cls-2" d="M1005.01,125.33h-7.26v5.17h7.98l-.25,1.66h-9.62v-14.61h9.51v1.66h-7.62v4.47h7.26v1.66Z"/><path class="cls-2" d="M1010.3,125.73v6.42h-1.91v-14.61h5.71c3,0,4.6,1.64,4.6,3.91,0,1.91-1.09,3.07-2.5,3.44,1.2.32,2.23,1.22,2.23,3.74v.63c0,1.01-.04,2.29.21,2.9h-1.89c-.27-.63-.25-1.76-.25-3.15v-.29c0-2.08-.59-2.98-3.21-2.98h-2.98ZM1010.3,124.09h3.17c2.25,0,3.21-.84,3.21-2.48s-1.01-2.44-2.98-2.44h-3.4v4.91Z"/><path class="cls-2" d="M1024.16,127.77l-1.58,4.39h-1.93l5.21-14.61h2.37l5.44,14.61h-2.08l-1.62-4.39h-5.82ZM1029.49,126.11c-1.41-3.84-2.16-5.88-2.48-6.99h-.02c-.36,1.24-1.22,3.72-2.33,6.99h4.83Z"/><path class="cls-2" d="M1037.2,119.2h-4.7v-1.66h11.38v1.66h-4.72v12.95h-1.95v-12.95Z"/><path class="cls-2" d="M1047.91,117.54v14.61h-1.93v-14.61h1.93Z"/><path class="cls-2" d="M1064.5,124.76c0,4.03-2.25,7.6-6.84,7.6-4.3,0-6.7-3.32-6.7-7.52s2.44-7.52,6.87-7.52c4.12,0,6.68,3.09,6.68,7.43ZM1052.99,124.79c0,3.15,1.6,5.92,4.75,5.92,3.38,0,4.75-2.79,4.75-5.9s-1.53-5.82-4.75-5.82-4.75,2.69-4.75,5.79Z"/><path class="cls-2" d="M1067.55,132.15v-14.61h2.56c2.1,3.42,6.66,10.69,7.47,12.26h.02c-.15-1.87-.12-4.18-.12-6.55v-5.71h1.83v14.61h-2.41c-1.93-3.17-6.68-10.98-7.58-12.62h-.04c.1,1.66.1,4.14.1,6.78v5.84h-1.83Z"/><path class="cls-2" d="M1084.07,128.08c.4,1.76,1.6,2.71,3.72,2.71,2.27,0,3.17-1.07,3.17-2.46,0-1.47-.71-2.29-3.63-2.98-3.44-.84-4.64-2.02-4.64-4.07,0-2.18,1.6-3.95,4.85-3.95,3.49,0,4.91,2.02,5.12,3.93h-1.97c-.27-1.28-1.07-2.35-3.21-2.35-1.78,0-2.77.8-2.77,2.18s.82,1.91,3.38,2.54c4.16,1.01,4.89,2.62,4.89,4.51,0,2.35-1.74,4.2-5.31,4.2s-5.25-2.02-5.56-4.26h1.97Z"/><path class="cls-2" d="M992.85,304.11v14.61h-1.93v-14.61h1.93Z"/><path class="cls-2" d="M996.84,304.11h5.54c2.83,0,4.79,1.6,4.79,4.26,0,2.83-2.06,4.35-4.91,4.35h-3.46v6.01h-1.95v-14.61ZM998.79,311.08h3.38c2,0,3-.97,3-2.67,0-1.78-1.22-2.67-2.94-2.67h-3.44v5.33Z"/><path class="cls-2" d="M1015.36,304.11h5.54c2.83,0,4.79,1.6,4.79,4.26,0,2.83-2.06,4.35-4.91,4.35h-3.46v6.01h-1.95v-14.61ZM1017.31,311.08h3.38c2,0,3-.97,3-2.67,0-1.78-1.22-2.67-2.94-2.67h-3.44v5.33Z"/><path class="cls-2" d="M1041.38,311.33c0,4.03-2.25,7.6-6.84,7.6-4.3,0-6.7-3.32-6.7-7.52s2.44-7.52,6.87-7.52c4.12,0,6.68,3.09,6.68,7.43ZM1029.87,311.35c0,3.15,1.6,5.92,4.75,5.92,3.38,0,4.75-2.79,4.75-5.9s-1.53-5.82-4.75-5.82-4.75,2.69-4.75,5.79Z"/><path class="cls-2" d="M1057.15,311.33c0,4.03-2.25,7.6-6.84,7.6-4.3,0-6.7-3.32-6.7-7.52s2.44-7.52,6.87-7.52c4.12,0,6.68,3.09,6.68,7.43ZM1045.64,311.35c0,3.15,1.6,5.92,4.75,5.92,3.38,0,4.75-2.79,4.75-5.9s-1.53-5.82-4.75-5.82-4.75,2.69-4.75,5.79Z"/><path class="cls-2" d="M1060.19,304.11h1.93v12.95h7.62l-.27,1.66h-9.28v-14.61Z"/><path class="cls-2" d="M1005.14,465.89h-4.7v-1.66h11.38v1.66h-4.72v12.96h-1.95v-12.96Z"/><path class="cls-2" d="M1026.23,471.45c0,4.03-2.25,7.6-6.84,7.6-4.3,0-6.7-3.32-6.7-7.52s2.44-7.52,6.87-7.52c4.12,0,6.68,3.09,6.68,7.43ZM1014.72,471.47c0,3.15,1.6,5.92,4.75,5.92,3.38,0,4.75-2.79,4.75-5.9s-1.53-5.82-4.75-5.82-4.75,2.69-4.75,5.79Z"/><path class="cls-2" d="M1034.58,464.23h5.61c3.09,0,4.51,1.64,4.51,3.65,0,1.7-.97,2.79-2.1,3.19,1.03.32,2.58,1.34,2.58,3.49,0,2.75-2.1,4.28-4.87,4.28h-5.73v-14.61ZM1039.81,470.32c2.12,0,2.94-.84,2.94-2.27,0-1.3-.92-2.2-2.65-2.2h-3.63v4.47h3.34ZM1036.47,477.25h3.61c1.83,0,3.11-.86,3.11-2.69,0-1.58-1.01-2.65-3.49-2.65h-3.23v5.33Z"/><path class="cls-2" d="M1057.31,472.02h-7.26v5.17h7.98l-.25,1.66h-9.62v-14.61h9.51v1.66h-7.62v4.47h7.26v1.66Z"/><path class="cls-2" d="M966.54,499.66l-1.57,4.39h-1.93l5.21-14.61h2.37l5.44,14.61h-2.08l-1.62-4.39h-5.82ZM971.87,498c-1.41-3.84-2.16-5.88-2.48-6.99h-.02c-.36,1.24-1.22,3.72-2.33,6.99h4.83Z"/><path class="cls-2" d="M978.34,504.04v-14.61h2.56c2.1,3.42,6.66,10.69,7.47,12.26h.02c-.15-1.87-.12-4.18-.12-6.55v-5.71h1.83v14.61h-2.41c-1.93-3.17-6.68-10.98-7.58-12.62h-.04c.1,1.66.1,4.14.1,6.78v5.84h-1.83Z"/><path class="cls-2" d="M994.09,504.04v-14.61h2.56c2.1,3.42,6.66,10.69,7.47,12.26h.02c-.15-1.87-.12-4.18-.12-6.55v-5.71h1.83v14.61h-2.41c-1.93-3.17-6.68-10.98-7.58-12.62h-.04c.1,1.66.1,4.14.1,6.78v5.84h-1.83Z"/><path class="cls-2" d="M1022.44,496.65c0,4.03-2.25,7.6-6.84,7.6-4.3,0-6.7-3.32-6.7-7.52s2.44-7.52,6.87-7.52c4.12,0,6.68,3.09,6.68,7.43ZM1010.93,496.67c0,3.15,1.6,5.92,4.75,5.92,3.38,0,4.75-2.79,4.75-5.9s-1.53-5.82-4.75-5.82-4.75,2.69-4.75,5.79Z"/><path class="cls-2" d="M1027.39,489.43v8.8c0,3.44,1.89,4.39,3.76,4.39,2.18,0,3.74-1.01,3.74-4.39v-8.8h1.95v8.69c0,4.74-2.62,6.11-5.73,6.11s-5.69-1.47-5.69-5.96v-8.84h1.97Z"/><path class="cls-2" d="M1040.65,504.04v-14.61h2.56c2.1,3.42,6.66,10.69,7.47,12.26h.02c-.15-1.87-.12-4.18-.12-6.55v-5.71h1.83v14.61h-2.41c-1.93-3.17-6.68-10.98-7.58-12.62h-.04c.1,1.66.1,4.14.1,6.78v5.84h-1.83Z"/><path class="cls-2" d="M1067.84,499.91c-.65,2.48-2.5,4.33-5.82,4.33-4.37,0-6.57-3.32-6.57-7.45s2.21-7.56,6.63-7.56c3.44,0,5.31,1.97,5.75,4.41h-1.93c-.53-1.6-1.58-2.79-3.88-2.79-3.23,0-4.54,2.94-4.54,5.88s1.24,5.9,4.62,5.9c2.25,0,3.23-1.3,3.78-2.71h1.95Z"/><path class="cls-2" d="M1079.83,497.22h-7.26v5.17h7.98l-.25,1.66h-9.62v-14.61h9.51v1.66h-7.62v4.47h7.26v1.66Z"/><path class="cls-2" d="M1083.21,489.43h5.21c4.12,0,6.89,2.81,6.89,7.16s-2.71,7.45-6.95,7.45h-5.14v-14.61ZM1085.14,502.41h3.07c3.44,0,5.06-2.48,5.06-5.77,0-2.88-1.49-5.54-5.06-5.54h-3.07v11.32Z"/></svg>