<svg width="584" height="140" viewBox="0 0 584 140" fill="none" xmlns="http://www.w3.org/2000/svg">
<path fill-rule="evenodd" clip-rule="evenodd" d="M119.954 66.7467C120.207 66.6667 120.46 66.5867 120.714 66.4933C133.325 62.28 139.977 56.6 139.977 50C139.977 42.96 132.405 36.9733 118.087 32.6667C117.621 32.52 117.141 32.3867 116.661 32.2534C114.382 31.6001 111.995 31.0133 109.489 30.48C108.956 27.9867 108.369 25.5867 107.716 23.32C107.632 22.986 107.536 22.6584 107.44 22.3328C107.398 22.1907 107.356 22.0484 107.316 21.9067C103.023 7.57333 97.0241 0 89.9853 0C83.3864 0 77.7073 6.65333 73.4813 19.28C73.4413 19.4067 73.4013 19.53 73.3613 19.6533C73.3213 19.7767 73.2813 19.9 73.2413 20.0267C73.0414 20.64 72.8414 21.2667 72.6548 21.9067C72.2015 23.44 71.7616 25.0267 71.3483 26.68C70.8951 26.6667 70.4418 26.6667 69.9886 26.6667C69.5353 26.6667 69.082 26.6667 68.6288 26.68C68.2155 25.0267 67.7756 23.44 67.3223 21.9067C67.1357 21.2667 66.9357 20.64 66.7358 20.0267C66.6558 19.7735 66.5757 19.5198 66.4825 19.2667C62.2698 6.65333 56.5907 0 49.9918 0C42.953 0 36.954 7.57333 32.6613 21.9067C32.6213 22.0469 32.58 22.1871 32.5386 22.3277L32.5378 22.3305L32.5374 22.332C32.4414 22.6579 32.345 22.9857 32.2614 23.32C31.6082 25.6 31.0083 27.9867 30.4883 30.4933C27.9954 31.0133 25.5958 31.6133 23.3295 32.2533L23.3281 32.2537C22.8487 32.3869 22.3692 32.5202 21.9031 32.6667C7.5721 36.9733 0 42.96 0 50C0 56.6 6.65225 62.28 19.2768 66.5067C19.4035 66.5467 19.5268 66.5867 19.6501 66.6267C19.7734 66.6667 19.8967 66.7067 20.0234 66.7467C20.6366 66.9467 21.2632 67.1467 21.9031 67.3333C23.4362 67.7867 25.0226 68.2267 26.6756 68.64C26.6623 69.0933 26.6623 69.5467 26.6623 70C26.6623 70.4533 26.6623 70.9067 26.6756 71.36C25.0226 71.7733 23.4362 72.2133 21.9031 72.6667C21.2632 72.8533 20.6366 73.0533 20.0234 73.2533C19.7703 73.3333 19.5167 73.4134 19.2635 73.5067C6.65225 77.7333 0 83.4 0 90C0 97.04 7.5721 103.04 21.9031 107.333C22.0448 107.374 22.1864 107.416 22.3285 107.457C22.654 107.553 22.9822 107.65 23.3162 107.733C25.5825 108.387 27.9821 108.973 30.475 109.507C31.0083 112.013 31.5948 114.4 32.2481 116.68C32.3814 117.16 32.5147 117.64 32.6613 118.107C36.954 132.427 42.953 140 49.9918 140C56.5907 140 62.2698 133.347 66.4958 120.72C66.5758 120.48 66.6558 120.227 66.7358 119.973C66.9357 119.36 67.1357 118.747 67.3223 118.107C67.7889 116.573 68.2155 114.973 68.6288 113.32H71.3483C71.7616 114.973 72.1882 116.573 72.6548 118.107C72.8414 118.747 73.0414 119.36 73.2413 119.973C73.3213 120.227 73.4013 120.48 73.4946 120.733C77.7073 133.347 83.3864 140 89.9853 140C97.0241 140 103.023 132.427 107.316 118.107C107.462 117.64 107.596 117.16 107.729 116.68C108.369 114.413 108.969 112.013 109.502 109.52C111.995 108.987 114.395 108.387 116.661 107.747C117.141 107.613 117.621 107.48 118.087 107.333C132.405 103.04 139.977 97.04 139.977 90C139.977 83.4 133.325 77.7333 120.7 73.4933C120.46 73.4134 120.207 73.3334 119.954 73.2534C119.341 73.0534 118.727 72.8533 118.087 72.6667C116.554 72.2 114.955 71.7733 113.301 71.36V68.64C114.955 68.2267 116.554 67.8 118.087 67.3333C118.727 67.1467 119.34 66.9467 119.954 66.7467ZM64.5361 99.9467C64.1762 102.267 63.7896 104.48 63.363 106.573C63.2697 106.573 63.1763 106.573 63.0964 106.56C60.8834 106.493 58.7371 106.4 56.6441 106.28C51.8182 105.987 47.2856 105.547 43.073 104.973C43.5795 107.493 44.1261 109.8 44.686 111.867C48.0321 112.28 51.4982 112.6 55.031 112.84C57.2706 112.987 59.5503 113.107 61.8432 113.187C61.2033 115.587 60.5234 117.787 59.8302 119.787C56.7241 128.547 53.098 133.333 49.9918 133.333C46.6724 133.333 42.753 127.867 39.5135 117.907C38.8336 115.76 38.1804 113.4 37.5539 110.853C37.0339 108.68 36.554 106.36 36.1008 103.893C35.7008 101.68 35.3409 99.36 35.0209 96.92C34.4477 92.72 34.0078 88.1867 33.7145 83.36C31.3149 83.8533 29.1286 84.4 27.1556 84.96C27.3955 88.5067 27.7155 91.96 28.1287 95.3067C28.422 97.7467 28.7553 100.133 29.1419 102.44C26.5957 101.827 24.2494 101.16 22.1031 100.48C12.1313 97.2533 6.66558 93.32 6.66558 90C6.66558 86.8933 11.4515 83.2533 20.2234 80.16C22.223 79.4533 24.4227 78.7867 26.8089 78.1467C28.662 77.6667 30.635 77.2 32.7147 76.7733H32.728C32.9546 76.72 33.1812 76.6667 33.4212 76.6267C35.5142 76.2 37.7272 75.8133 40.0468 75.4533C45.2326 74.6667 50.9783 74.0667 57.1907 73.7067C58.4571 78.08 61.8965 81.5333 66.2825 82.8C65.9226 89.0133 65.3227 94.76 64.5361 99.9467ZM40.0468 64.5467C45.229 65.3328 50.9702 65.9325 57.1775 66.2926C58.4442 61.9063 61.8968 58.4666 66.2692 57.2C65.9092 50.9867 65.3093 45.24 64.5228 40.0533C64.1628 37.7333 63.7762 35.52 63.3496 33.4267C63.3273 33.3001 63.3008 33.1735 63.2748 33.0493C63.2542 32.951 63.234 32.8542 63.2163 32.76C62.7764 30.6667 62.3098 28.68 61.8299 26.8133C61.19 24.4267 60.5234 22.2267 59.8169 20.2267C56.7241 11.4533 53.0847 6.66667 49.9785 6.66667C46.659 6.66667 42.7263 12.1333 39.5002 22.1067C38.8203 24.2533 38.1538 26.6 37.5405 29.1467C39.8468 28.76 42.2331 28.4267 44.6727 28.1333C48.0188 27.72 51.4849 27.4 55.0177 27.16C55.5776 29.1333 56.1242 31.32 56.6174 33.72C51.7915 34.0133 47.2589 34.4533 43.0596 35.0267C40.62 35.3467 38.3004 35.7067 36.0874 36.1067C33.6212 36.56 31.3015 37.04 29.1286 37.56C26.5823 38.1733 24.236 38.84 22.0897 39.52C12.118 42.7467 6.65225 46.68 6.65225 50C6.65225 53.1067 11.4381 56.7467 20.21 59.84C22.2097 60.5467 24.4093 61.2133 26.7956 61.8533C26.8756 59.56 26.9956 57.28 27.1422 55.04C27.3822 51.5067 27.7021 48.04 28.1154 44.6933C30.1951 44.1333 32.488 43.5867 35.0076 43.08C34.4344 47.28 33.9944 51.8133 33.7012 56.64C33.5812 58.7333 33.4879 60.8933 33.4212 63.1067V63.3733C35.5142 63.8 37.7272 64.1867 40.0468 64.5467ZM119.767 80.16C128.526 83.2667 133.312 86.8933 133.312 90C133.312 93.32 127.846 97.24 117.887 100.467C115.741 101.16 113.381 101.813 110.835 102.44C108.662 102.96 106.343 103.44 103.876 103.893C101.663 104.293 99.3438 104.653 96.9042 104.973C92.6915 105.547 88.1589 105.987 83.333 106.28C83.8396 108.68 84.3862 110.867 84.9461 112.84C88.4922 112.6 91.945 112.28 95.2911 111.867C97.7307 111.573 100.117 111.24 102.423 110.853C101.797 113.4 101.143 115.76 100.45 117.907C97.2241 127.867 93.3047 133.333 89.9853 133.333C86.8791 133.333 83.253 128.547 80.1469 119.787C79.4537 117.787 78.7738 115.587 78.1339 113.187C77.654 111.333 77.1874 109.36 76.7608 107.28L76.7361 107.169C76.6913 106.97 76.6479 106.776 76.6141 106.573C76.1875 104.48 75.8009 102.267 75.441 99.9467C74.6545 94.76 74.0546 89.0133 73.6946 82.8C78.0672 81.5333 81.52 78.0933 82.7865 73.7067C88.9988 74.0667 94.7445 74.6667 99.9303 75.4533C102.25 75.8133 104.463 76.2 106.556 76.6267C106.556 76.72 106.556 76.8133 106.543 76.9067C106.476 79.1067 106.383 81.2533 106.263 83.3467C105.969 88.1733 105.529 92.7067 104.956 96.92C107.476 96.4133 109.782 95.8667 111.848 95.3067C112.262 91.96 112.582 88.5067 112.822 84.96C112.968 82.72 113.088 80.4533 113.168 78.1467C115.568 78.7867 117.767 79.4667 119.767 80.16ZM113.168 61.8533C111.302 62.3333 109.329 62.8 107.236 63.2267C107.009 63.28 106.783 63.3333 106.556 63.3733C104.463 63.8 102.25 64.1867 99.9303 64.5467C94.7445 65.3333 88.9988 65.9333 82.7865 66.2933C81.52 61.92 78.0806 58.4667 73.6946 57.2C74.0546 50.9867 74.6545 45.24 75.441 40.0533C75.8009 37.7333 76.1875 35.52 76.6141 33.4267H76.8941C79.1071 33.4933 81.2534 33.5867 83.3464 33.7067C88.1722 34 92.7048 34.44 96.9042 35.0133C96.3976 32.4933 95.851 30.2 95.2911 28.12C91.945 27.7067 88.4922 27.3867 84.9461 27.1467C82.7065 27 80.4402 26.88 78.1339 26.8C78.7738 24.4133 79.4403 22.2133 80.1469 20.2133C83.2397 11.44 86.8791 6.65333 89.9853 6.65333C93.3047 6.65333 97.2374 12.12 100.464 22.0933C101.143 24.24 101.81 26.5867 102.423 29.1333C102.943 31.3067 103.423 33.6267 103.876 36.0933C104.276 38.3067 104.636 40.6267 104.956 43.0667C105.529 47.28 105.969 51.8133 106.263 56.64C108.662 56.1333 110.849 55.5867 112.822 55.0267C112.582 51.4933 112.262 48.0267 111.848 44.68C111.555 42.24 111.222 39.8533 110.835 37.5467C113.381 38.1733 115.741 38.8267 117.887 39.5067C127.846 42.7467 133.312 46.6667 133.312 49.9867C133.312 53.0933 128.526 56.72 119.767 59.8267C117.767 60.52 115.568 61.2 113.168 61.84V61.8533Z" fill="white"/>
<path d="M194.688 53.5867C187.849 53.5867 183.69 56.6667 181.464 60.4267V39.9733H173.318V95.7467H181.464V73.52C181.464 64.9067 185.236 60.44 191.689 60.44C199.381 60.44 200.221 65.8267 200.221 72.1333V95.7467H208.379V69.8267C208.379 60.0533 204.846 53.6 194.688 53.6V53.5867Z" fill="white"/>
<path d="M233.842 89.8933C240.147 89.8933 243.76 85.5067 243.76 76.9733L243.773 76.96V54.3467H251.852V95.7333H243.773V89.8133C241.321 93.8133 237.708 96.7333 230.936 96.7333C221.004 96.7333 217.471 90.3467 217.471 80.5067V54.3467H225.616V78.2C225.616 84.5067 226.456 89.8933 233.842 89.8933Z" fill="white"/>
<path d="M308.136 53.5867C302.364 53.5867 297.445 55.8933 294.219 60.8933C292.366 56.36 288.606 53.5867 282.221 53.5867C275.835 53.5867 271.996 56.6667 269.756 60.4267V54.3467H261.611V95.7333H269.756V73.4267C269.756 64.8933 273.369 60.4267 279.221 60.4267C286.526 60.4267 287.526 65.8133 287.526 72.12V95.7333H295.672V73.4267C295.672 64.8933 299.364 60.4267 305.137 60.4267C312.442 60.4267 313.522 65.8133 313.522 72.12V95.7333H321.667V69.8133C321.667 60.04 317.975 53.5867 308.136 53.5867Z" fill="white"/>
<path fill-rule="evenodd" clip-rule="evenodd" d="M347.623 53.4267C359.075 53.4267 364.54 58.8133 364.54 70.5867H364.554V79.9733C364.554 86.6667 364.94 91.8933 365.634 95.7467H357.475C357.102 93.6667 356.942 91.8933 356.942 90.2C354.329 94.4267 349.863 96.7333 342.864 96.7333C335.105 96.7333 328.64 92.3467 328.64 84.7333C328.64 74.8933 339.718 71.9733 356.555 70.2V69.2C356.555 62.28 352.636 59.8133 347.636 59.8133C342.171 59.8133 338.945 62.6667 338.558 67.5067H330.399C331.093 58.8133 338.398 53.4267 347.623 53.4267ZM345.01 90.6C351.236 90.6 357.008 87.7467 357.008 78.44V76.1333C345.09 77.36 337.478 79.0533 337.478 84.44C337.478 88.1333 340.318 90.6 345.01 90.6Z" fill="white"/>
<path d="M395.389 53.5867C388.55 53.5867 384.391 56.6667 382.164 60.4267V54.3467H374.019V95.7333H382.164V73.5067C382.164 64.8933 385.937 60.4267 392.389 60.4267C400.001 60.4267 400.921 65.8133 400.921 72.12V95.7333H409.08V69.8133C409.08 60.04 405.547 53.5867 395.389 53.5867Z" fill="white"/>
<path d="M423.171 84.8267H423.264C426.544 84.8267 429.21 87.5067 429.21 90.8267C429.21 94.1467 426.557 96.8267 423.264 96.8267H423.171C419.891 96.8267 417.225 94.1467 417.225 90.8267C417.225 87.5067 419.878 84.8267 423.171 84.8267Z" fill="white"/>
<path d="M446.207 43.8267H438.062V54.36H431.529V60.6667H438.062V85.1333C438.062 93.9733 440.288 95.7467 448.673 95.7467H454.286V89.2133H450.753C446.754 89.2133 446.22 88.2133 446.22 83.9867V60.68H454.299V54.3733H446.22V43.84L446.207 43.8267Z" fill="white"/>
<path fill-rule="evenodd" clip-rule="evenodd" d="M457.259 75.04C457.259 61.9733 466.257 53.5867 477.722 53.5867L477.709 53.5733C489.867 53.5733 497.479 63.12 497.479 75.3467C497.479 76.04 497.479 76.6533 497.399 77.4267H465.79C466.644 86.4267 472.416 89.8133 477.948 89.8133C483.788 89.8133 487.174 87.28 488.867 83.5067H496.945C494.719 91.2 487.72 96.7333 478.028 96.7333C464.871 96.7333 457.259 88.1067 457.259 75.04ZM477.709 60.28C472.403 60.28 467.097 62.8133 465.87 71.2H489.013C488.56 64.7467 484.094 60.28 477.709 60.28Z" fill="white"/>
<path d="M522.541 89.8267C516.769 89.8267 511.236 85.2933 511.236 75.0533C511.236 64.8133 516.702 60.44 522.541 60.44C527.62 60.44 531.7 63.6 532.686 68.44H540.685C539.458 60.36 532.46 53.6 522.768 53.6C510.463 53.6 502.544 62.6 502.544 75.0533C502.544 87.5067 510.01 96.7467 522.235 96.7467C531.54 96.7467 539.538 90.6 541.231 81.9067H533.073C532.073 86.2133 528.154 89.8267 522.541 89.8267Z" fill="white"/>
<path d="M556.122 60.4267C558.349 56.6667 562.508 53.5867 569.347 53.5867V53.6C579.505 53.6 583.038 60.0533 583.038 69.8267V95.7467H574.879V72.1333C574.879 65.8267 574.039 60.44 566.347 60.44C559.895 60.44 556.122 64.9067 556.122 73.52V95.7467H547.977V39.9733H556.122V60.4267Z" fill="white"/>
</svg>
