<?xml version="1.0" encoding="UTF-8"?><svg id="Layer_1" xmlns="http://www.w3.org/2000/svg" viewBox="0 0 800 800"><defs><style>.cls-1{stroke-width:6px;}.cls-1,.cls-2{stroke-linecap:round;}.cls-1,.cls-2,.cls-3{fill:none;stroke:#fff;}.cls-1,.cls-3{stroke-miterlimit:10;}.cls-4{fill:#fff;}.cls-5{fill:#0b1dee;}.cls-2{stroke-linejoin:bevel;}.cls-2,.cls-3{stroke-width:10px;}</style></defs><circle class="cls-5" cx="400.44" cy="400.22" r="272.92"/><path class="cls-3" d="m268.04,593.12c6.64-16.02-1.08-34.21-6.07-49.56-4.37-13.44-10.78-33.25-1.27-45.93,11.33-15.1,36.13-8.08,51.11-4.1,16.18,4.31,42.6,11.99,54.52-4.74,5.73-8.04,4.63-18.6,2.56-27.68-2.43-10.64-6.65-20.75-9.81-31.18-2.97-9.8-5.78-21.08-3.06-31.26,2.91-10.89,12.83-16.42,23.46-17.58,19.5-2.12,38.82,6.29,57.47,10.69,19.2,4.53,40.07,8.39,59.33,2.01,10.82-3.59,20-10.73,26.3-20.19,6.51-9.77,10.17-21.03,14.61-31.81,9.41-22.85,23.56-41.67,45.12-54.31,5.12-3,10.47-5.61,15.99-7.8-3.93,8.63-7.86,17.27-11.8,25.9"/><path class="cls-3" d="m216.54,545.23c15.5-7.79,34.2-1.41,49.87,2.45,13.72,3.38,33.94,8.34,45.9-2.07,14.24-12.4,5.44-36.62.38-51.27-5.47-15.82-15.05-41.62.77-54.72,7.61-6.3,18.22-5.97,27.42-4.56,10.79,1.65,21.18,5.13,31.81,7.53,9.99,2.26,21.45,4.23,31.4.78,10.65-3.69,15.45-13.98,15.83-24.67.7-19.6-9.09-38.26-14.83-56.54-5.91-18.82-11.28-39.35-6.31-59.03,2.79-11.05,9.25-20.72,18.23-27.7,9.27-7.2,20.24-11.67,30.66-16.88,22.11-11.04,39.85-26.52,50.89-48.94,2.62-5.32,4.83-10.85,6.62-16.51-8.33,4.55-16.65,9.1-24.98,13.64"/><line class="cls-2" x1="541.63" y1="246.64" x2="438.78" y2="357.24"/><path class="cls-4" d="m557.65,229.41c-10.55,5.31-25.04,10.6-36.28,11.78l18.15,7.72,9.01,17.54c.36-11.3,4.58-26.13,9.12-37.04Z"/><line class="cls-1" x1="377.18" y1="382.42" x2="393.24" y2="397.35"/><line class="cls-1" x1="379.86" y1="406.98" x2="411.02" y2="435.96"/><line class="cls-1" x1="357.37" y1="408.13" x2="383.68" y2="432.6"/><line class="cls-1" x1="343.19" y1="451.18" x2="367.36" y2="473.65"/><line class="cls-1" x1="309.31" y1="441.74" x2="340.47" y2="470.71"/><line class="cls-1" x1="321.18" y1="474.85" x2="345.35" y2="497.32"/><line class="cls-1" x1="277.77" y1="489.34" x2="304.35" y2="514.06"/><line class="cls-1" x1="282.64" y1="515.94" x2="313.8" y2="544.92"/><line class="cls-1" x1="255.76" y1="513.01" x2="271.81" y2="527.94"/><circle class="cls-1" cx="404.23" cy="407.57" r=".13"/><circle class="cls-1" cx="350.7" cy="480.22" r=".13"/><circle class="cls-1" cx="282.26" cy="537.82" r=".13"/></svg>