<?xml version="1.0" encoding="UTF-8"?><svg id="Layer_1" xmlns="http://www.w3.org/2000/svg" xmlns:xlink="http://www.w3.org/1999/xlink" viewBox="0 0 472.34 97.29"><defs><style>.cls-1{fill:#fff;}</style></defs><path class="cls-1" d="M339.05,38.94v23.61h-3.65l.24-17.52c-.57-.16-.41.15-.56.31-2.86,3.21-5.41,6.76-8.19,10.05-.68.57-1.86.41-2.69.22l-8.89-10.83.12,17.77h-3.53l-.26-23.38c.28-.39,3.41-.34,3.93,0l9.23,11.46.7.46,10.01-12.15h3.53Z"/><path class="cls-1" d="M286.91,38.52c6.54-.6,14.17,2.94,15.57,9.84,1.57,7.74-4.83,13.87-12.22,14.43-19.85,1.51-21.77-22.59-3.35-24.28ZM280.23,45.11c-2.77,2.81-3.08,7.22-.67,10.36,4.86,6.34,19,4.56,19.34-4.48s-13.27-11.36-18.67-5.88Z"/><path class="cls-1" d="M182.42,38.94c.97.14,2.76,1.17,3.53,1.82,4.64,3.95,2.43,10.78-2.92,12.66l6.57,9.13h-4.26l-6.82-8.76h-7.55l-.37.37v7.79c0,.06.29.19.14.37-.25.37-3.35.47-3.79-.12v-23.24h15.46ZM170.61,50.14c0,.43,7.93.31,8.65.25,2.29-.18,5.17-1.35,5.25-4.02.09-2.85-2.89-3.84-5.25-4.03-1.09-.09-7.6-.13-8.16.13-.12.05-.49.44-.49.48v7.18Z"/><path class="cls-1" d="M124.86,62.55h-4.26l-6.82-8.76h-7.55l-.37.37v8.4c-1.15-.16-2.74.39-3.65-.37v-23.24h15.46c.19,0,1.29.47,1.59.6,4.76,2.04,5.94,8.11,2.31,11.82-.52.54-3.07,1.87-3.07,2.3,0,.9,5.99,7.23,6.34,8.89ZM106.24,42.35l-.37.37v7.3l.37.37h9.01c.16,0,1.63-.44,1.89-.55,2.65-1.14,3.7-4.48,1.14-6.37-.7-.52-2.45-1.11-3.27-1.11h-8.76Z"/><path class="cls-1" d="M461.23,38.94v3.41h-15.46l-.37.37v5.96h13.87c-.15.75.38,3.36-.4,3.62-.62.21-1.47-.2-2.15-.22-2.94-.09-7.71-.33-10.49,0-.35.04-.63.03-.84.38v6.45h15.46c.6.81.59,2.87,0,3.65h-18.98l-.37-.37v-23.24h19.72Z"/><path class="cls-1" d="M219.29,38.94v3.41h-15.46l-.37.37v5.6l.37.37h13.39c.57.32.47,3.25.22,3.43l-13.13-.04-.84.38v6.45h15.46c.76.91.2,2.5.37,3.65h-19.35l-.31-.37c0-.1.19-.18.19-.24v-23h19.47Z"/><path class="cls-1" d="M155.04,62.55c-.24-.16-1.88-4.47-2.46-5.21-.24-.31-.39-.43-.81-.4l-12.87.06c-1.09.33-2.31,4.96-3.09,5.43-.43.26-3.89.25-3.89-.25l11.32-23c.35-.41,4.2-.39,4.62,0l11.19,22.89-.24.48h-3.77ZM140.43,53.3h10.22l-4.99-10.47-5.23,10.47Z"/><path class="cls-1" d="M353.65,53.79v8.4c-.91.76-2.5.2-3.65.37v-23.61h15.46c.12,0,1.92.81,2.2.97,4.84,2.7,4.96,9.05.59,12.28-.42.31-2.96,1.6-3.27,1.6h-11.32ZM354.01,42.35l-.37.37v7.3l.37.37h9.01c.1,0,1.6-.51,1.83-.61,3.29-1.47,3.6-5.57.07-6.89-.34-.13-1.9-.54-2.14-.54h-8.76Z"/><path class="cls-1" d="M265.29,55.98l1.36,3.16c-7.22,6.23-21.77,4.7-23.93-5.79-2.81-13.65,15.62-19.05,24.21-10.65l-2.25,3.04c-6.04-6.01-19.41-3.95-18.35,6.19.72,6.85,9.77,8.7,15.15,6.21.58-.27,3.54-2.36,3.8-2.16Z"/><path class="cls-1" d="M383.83,38.94v12.53c0,7.52,10.94,10.52,15.19,4.24.4-.59,1.36-2.41,1.36-3.02v-13.75h3.65v13.75c0,.98-1.11,3.73-1.66,4.67-5.52,9.36-22.19,5.68-22.19-4.91v-13.51h3.65Z"/><path class="cls-1" d="M433.48,38.94v3.41h-8.64l-.37.37v19.47c-.88.6-3.04.59-3.89,0v-19.84h-8.64c-.59-.75-.59-2.69,0-3.41h21.54Z"/><image width="6250" height="6250" transform="translate(11.03 9.4) scale(.01)" xlink:href="../../Downloads/White Logo High Res (1).png"/></svg>