<svg width="1501" height="1533" viewBox="0 0 1501 1533" fill="none" xmlns="http://www.w3.org/2000/svg">
<path d="M1464.06 1457.75V1385.46C1464.06 1373.11 1459.91 1363.19 1451.61 1355.69C1443.31 1348 1431.77 1344.15 1416.98 1344.15C1402.2 1344.15 1390.66 1348 1382.36 1355.69C1374.05 1363.19 1369.9 1373.11 1369.9 1385.46V1457.75C1369.9 1470.11 1374.05 1480.13 1382.36 1487.82C1390.66 1495.32 1402.2 1499.06 1416.98 1499.06C1431.77 1499.06 1443.31 1495.32 1451.61 1487.82C1459.91 1480.13 1464.06 1470.11 1464.06 1457.75ZM1333.45 1455.93V1387.28C1333.45 1363.59 1340.95 1344.96 1355.93 1331.39C1370.92 1317.63 1391.27 1310.74 1416.98 1310.74C1442.7 1310.74 1463.05 1317.63 1478.04 1331.39C1493.02 1344.96 1500.51 1363.59 1500.51 1387.28V1455.93C1500.51 1479.62 1493.02 1498.35 1478.04 1512.12C1463.05 1525.69 1442.7 1532.47 1416.98 1532.47C1391.27 1532.47 1370.92 1525.69 1355.93 1512.12C1340.95 1498.35 1333.45 1479.62 1333.45 1455.93Z" fill="#F2F2F2"/>
<path d="M1136.87 1527.92H1103.16V1515.77L1179.09 1315.29H1214.93L1290.87 1515.77V1527.92H1255.03L1236.2 1475.37H1156.01L1136.87 1527.92ZM1196.41 1363.89L1166.94 1444.99H1225.26L1196.41 1363.89Z" fill="#F2F2F2"/>
<path d="M937.741 1347.19V1496.02H977.228C991.808 1496.02 1003.25 1492.28 1011.55 1484.78C1020.06 1477.29 1024.31 1467.47 1024.31 1455.32V1387.89C1024.31 1375.74 1020.06 1365.92 1011.55 1358.43C1003.25 1350.93 991.808 1347.19 977.228 1347.19H937.741ZM977.228 1527.92H901.292V1315.29H977.228C1003.15 1315.29 1023.5 1321.77 1038.28 1334.73C1053.27 1347.69 1060.76 1365.72 1060.76 1388.8V1454.41C1060.76 1477.5 1053.27 1495.52 1038.28 1508.48C1023.5 1521.44 1003.15 1527.92 977.228 1527.92Z" fill="#F2F2F2"/>
<path d="M706.909 1527.92H670.459V1315.29H703.871L794.995 1460.18V1315.29H831.445V1527.92H798.033L706.909 1383.03V1527.92Z" fill="#F2F2F2"/>
<path d="M570.092 1457.75V1385.46C570.092 1373.11 565.94 1363.19 557.638 1355.69C549.336 1348 537.793 1344.15 523.011 1344.15C508.229 1344.15 496.686 1348 488.384 1355.69C480.082 1363.19 475.93 1373.11 475.93 1385.46V1457.75C475.93 1470.11 480.082 1480.13 488.384 1487.82C496.686 1495.32 508.229 1499.06 523.011 1499.06C537.793 1499.06 549.336 1495.32 557.638 1487.82C565.94 1480.13 570.092 1470.11 570.092 1457.75ZM439.481 1455.93V1387.28C439.481 1363.59 446.973 1344.96 461.958 1331.39C476.943 1317.63 497.294 1310.74 523.011 1310.74C548.728 1310.74 569.079 1317.63 584.064 1331.39C599.049 1344.96 606.541 1363.59 606.541 1387.28V1455.93C606.541 1479.62 599.049 1498.35 584.064 1512.12C569.079 1525.69 548.728 1532.47 523.011 1532.47C497.294 1532.47 476.943 1525.69 461.958 1512.12C446.973 1498.35 439.481 1479.62 439.481 1455.93Z" fill="#F2F2F2"/>
<path d="M253.083 1527.92H218.152V1515.77L284.673 1417.96L223.316 1327.44V1315.29H260.373L307.454 1389.41L356.66 1315.29H391.591V1327.44L329.627 1417.66L396.755 1515.77V1527.92H359.698L306.542 1447.12L253.083 1527.92Z" fill="#F2F2F2"/>
<path d="M33.7157 1527.92H0V1515.77L75.9364 1315.29H111.778L187.715 1515.77V1527.92H151.873L133.041 1475.37H52.8517L33.7157 1527.92ZM93.2499 1363.89L63.7865 1444.99H122.106L93.2499 1363.89Z" fill="#F2F2F2"/>
<path d="M1138.58 471.644L1435.21 94.8672L1357.04 0.314453H907.604L835.249 91.1398L1138.58 471.644Z" fill="url(#paint0_linear_252_651)"/>
<path d="M607.976 0.314453H158.535L80.3711 94.8672L454.11 569.581L73.8574 1046.91L161.792 1141.46H611.233L757.79 955.308L904.347 1141.46H1353.79L1441.72 1046.91L607.976 0.314453Z" fill="url(#paint1_linear_252_651)"/>
<defs>
<linearGradient id="paint0_linear_252_651" x1="545.455" y1="420.561" x2="1194.44" y2="1101.47" gradientUnits="userSpaceOnUse">
<stop stop-color="#4FC4CD"/>
<stop offset="1" stop-color="#714EA0"/>
</linearGradient>
<linearGradient id="paint1_linear_252_651" x1="545.455" y1="420.561" x2="1194.44" y2="1101.47" gradientUnits="userSpaceOnUse">
<stop stop-color="#4FC4CD"/>
<stop offset="1" stop-color="#714EA0"/>
</linearGradient>
</defs>
</svg>
