<?xml version="1.0" encoding="UTF-8"?><svg id="Layer_1" xmlns="http://www.w3.org/2000/svg" viewBox="0 0 1470.45 429.02"><defs><style>.cls-1{fill:#231f20;}</style></defs><path class="cls-1" d="M350.26,109.01c40.2,0,71.1,30,71.1,68.7s-30.9,69-71.1,69h-40.2v72.3h-34.8V109.01h75ZM349.66,213.42c20.7,0,36.9-15,36.9-35.7s-16.2-35.4-36.9-35.4h-39.6v71.1h39.6Z"/><path class="cls-1" d="M431.25,243.12c0-44.4,34.2-79.5,75.3-79.5s75.3,35.1,75.3,79.5-34.2,79.51-75.3,79.51-75.3-35.4-75.3-79.51ZM549.16,243.12c0-28.8-19.2-48.9-42.6-48.9s-42.6,20.1-42.6,48.9,19.2,48.91,42.6,48.91,42.6-20.1,42.6-48.91Z"/><path class="cls-1" d="M601.65,272.82h32.4c1.2,13.2,11.7,22.5,27.9,22.5s24.6-8.4,24.6-18c0-30.3-81.01-16.5-81.01-69.01,0-24.9,20.1-44.7,54.9-44.7s55.2,21.6,57,48.3h-32.4c-1.5-12.6-9.3-21-24.6-21s-21.9,7.5-21.9,16.2c0,28.8,81,15,81,68.7,0,26.4-20.4,46.8-57.6,46.8s-58.8-22.8-60.3-49.8Z"/><path class="cls-1" d="M740.24,243.12c0-44.4,34.2-79.5,75.3-79.5,37.8,0,64.2,29.7,70.2,59.4h-33c-3.6-12.3-15.6-28.8-37.2-28.8-23.4,0-42.6,20.1-42.6,48.9s19.2,48.91,42.6,48.91c21.6,0,33.6-16.5,37.2-28.8h33c-6,29.4-32.4,59.4-70.2,59.4-41.1,0-75.3-35.4-75.3-79.51Z"/><path class="cls-1" d="M910.64,126.71c0-11.1,8.7-19.5,19.5-19.5s19.2,8.4,19.2,19.5-8.4,19.2-19.2,19.2-19.5-8.4-19.5-19.2ZM913.64,319.02v-151.81h33v151.81h-33Z"/><path class="cls-1" d="M976.04,243.12c0-46.2,32.4-79.5,69.91-79.5,23.1,0,39.6,14.1,42.9,19.5h1.5v-74.1h33v210.01h-24.6l-6-17.1h-1.5c-4.2,5.7-21,20.7-45.3,20.7-37.5,0-69.91-33.3-69.91-79.51ZM1090.35,243.12c0-29.1-18.9-48.9-40.8-48.9s-40.8,19.8-40.8,48.9,18.9,48.91,40.8,48.91,40.8-19.8,40.8-48.91Z"/><path class="cls-1" d="M1154.54,243.12c0-44.4,34.2-79.5,75.3-79.5s75.3,35.1,75.3,79.5-34.2,79.51-75.3,79.51-75.3-35.4-75.3-79.51ZM1272.45,243.12c0-28.8-19.2-48.9-42.6-48.9s-42.6,20.1-42.6,48.9,19.2,48.91,42.6,48.91,42.6-20.1,42.6-48.91Z"/><path class="cls-1" d="M1334.84,319.02v-151.81h24.6l6,16.8h1.5c4.8-6.6,20.1-20.4,42.6-20.4,35.7,0,60.91,26.1,60.91,66.3v89.1h-32.7v-86.7c0-22.5-14.7-38.1-34.8-38.1s-35.1,15.6-35.1,38.1v86.7h-33Z"/><path class="cls-1" d="M7.5,77.1c-1.92,0-3.84-.73-5.3-2.2-2.93-2.93-2.93-7.68,0-10.61l25.09-25.09c2.93-2.93,7.68-2.93,10.61,0,2.93,2.93,2.93,7.68,0,10.61l-25.09,25.09c-1.46,1.46-3.38,2.2-5.3,2.2Z"/><path class="cls-1" d="M34.56,118.31c-5.8,0-10.5-4.7-10.5-10.5v-61.2c0-5.8,4.7-10.5,10.5-10.5s10.5,4.7,10.5,10.5v61.2c0,5.8-4.7,10.5-10.5,10.5Z"/><path class="cls-1" d="M189.09,76.77c-1.92,0-3.84-.73-5.3-2.2l-25.09-25.09c-2.93-2.93-2.93-7.68,0-10.61,2.93-2.93,7.68-2.93,10.61,0l25.09,25.09c2.93,2.93,2.93,7.68,0,10.61-1.46,1.46-3.38,2.2-5.3,2.2Z"/><path class="cls-1" d="M172.7,106.1c0,30.15-16.73,50.05-37.55,65.81-6.42-4.3-12.9-8.27-19.1-12.04,6.96-4.79,13.33-9.77,18.77-15.26,11.52-11.64,16.88-23.87,16.88-38.51,0-5.8,4.7-10.5,10.5-10.5s10.5,4.7,10.5,10.5Z"/><path class="cls-1" d="M172.7,415.31c0,5.8-4.7,10.5-10.5,10.5s-10.5-4.7-10.5-10.5c0-14.63-5.36-26.87-16.88-38.51-5.43-5.48-11.81-10.46-18.77-15.25-5.56-3.82-11.48-7.52-17.6-11.26-1.8-1.1-3.61-2.2-5.44-3.31-4.8-2.91-9.7-5.88-14.56-8.98-5.69-3.62-11.33-7.42-16.7-11.49-12.71-9.63-23.9-20.8-30.68-34.91-2.24-4.66-4-9.64-5.18-15-1.09-4.96-1.68-10.26-1.68-15.91s.58-10.86,1.66-15.79c1.16-5.36,2.92-10.34,5.15-15,6.77-14.16,17.99-25.37,30.73-35.02,6.42,4.3,12.9,8.28,19.11,12.05-6.96,4.79-13.33,9.76-18.77,15.25-2.51,2.54-4.73,5.11-6.67,7.72-3.56,4.81-6.15,9.76-7.83,15-1.61,4.99-2.39,10.21-2.39,15.79s.8,10.9,2.43,15.91c1.69,5.24,4.3,10.2,7.88,15,1.91,2.57,4.1,5.1,6.58,7.61,5.43,5.49,11.8,10.46,18.76,15.26,5.55,3.82,11.48,7.51,17.6,11.25,1.8,1.09,3.61,2.2,5.45,3.31,4.8,2.91,9.7,5.88,14.56,8.98,5.69,3.62,11.33,7.42,16.7,11.49,20.81,15.76,37.55,35.66,37.55,65.81Z"/><path class="cls-1" d="M172.7,260.7c0,5.65-.58,10.94-1.68,15.91-1.18,5.36-2.94,10.34-5.18,15-6.78,14.11-17.97,25.28-30.68,34.91-6.42-4.3-12.89-8.27-19.1-12.04,6.96-4.79,13.33-9.77,18.77-15.26,2.47-2.5,4.67-5.03,6.58-7.61,3.58-4.8,6.19-9.76,7.88-15,1.63-5.01,2.43-10.28,2.43-15.91s-.78-10.81-2.39-15.79c-1.67-5.24-4.27-10.19-7.82-15-1.94-2.61-4.16-5.18-6.67-7.72-5.43-5.48-11.81-10.46-18.77-15.25-5.56-3.83-11.48-7.52-17.6-11.25-1.8-1.1-3.61-2.2-5.44-3.31-4.81-2.92-9.7-5.89-14.57-8.98-5.69-3.63-11.33-7.43-16.69-11.5-19.88-15.05-36.02-33.87-37.44-61.79-.07-1.32-.11-2.65-.11-4.02,0-5.8,4.7-10.5,10.5-10.5,5.2,0,9.51,3.77,10.35,8.73.1.58.15,1.17.15,1.77,0,14.64,5.37,26.87,16.89,38.51,5.43,5.49,11.8,10.46,18.76,15.26,5.55,3.82,11.48,7.52,17.6,11.25,1.8,1.1,3.61,2.2,5.45,3.31,4.81,2.92,9.7,5.89,14.56,8.99,5.69,3.62,11.33,7.41,16.69,11.48,12.74,9.65,23.96,20.86,30.73,35.02,2.23,4.66,3.99,9.64,5.15,15,1.08,4.93,1.66,10.18,1.66,15.79Z"/><path class="cls-1" d="M80.86,361.55c-6.96,4.79-13.34,9.77-18.77,15.25-11.52,11.64-16.89,23.88-16.89,38.51,0,5.8-4.7,10.5-10.5,10.5s-10.5-4.7-10.5-10.5c0-30.15,16.73-50.05,37.54-65.81,6.42,4.3,12.9,8.28,19.11,12.05Z"/><path class="cls-1" d="M162.16,118.31c-5.8,0-10.5-4.7-10.5-10.5v-61.2c0-5.8,4.7-10.5,10.5-10.5s10.5,4.7,10.5,10.5v61.2c0,5.8-4.7,10.5-10.5,10.5Z"/><path class="cls-1" d="M98.45,136.7c-5.8,0-10.5-4.7-10.5-10.5V12.37c0-5.8,4.7-10.5,10.5-10.5s10.5,4.7,10.5,10.5v113.83c0,5.8-4.7,10.5-10.5,10.5Z"/><path class="cls-1" d="M71.85,42.33c-1.92,0-3.84-.73-5.3-2.2-2.93-2.93-2.93-7.68,0-10.61l25.09-25.09c2.93-2.93,7.68-2.93,10.61,0,2.93,2.93,2.93,7.68,0,10.61l-25.09,25.09c-1.46,1.46-3.38,2.2-5.3,2.2Z"/><path class="cls-1" d="M125.54,42.93c-1.92,0-3.84-.73-5.3-2.2l-25.09-25.09c-2.93-2.93-2.93-7.68,0-10.61,2.93-2.93,7.68-2.93,10.61,0l25.09,25.09c2.93,2.93,2.93,7.68,0,10.61-1.46,1.46-3.38,2.2-5.3,2.2Z"/><path class="cls-1" d="M171.05,244.91H25.86c1.16-5.36,2.92-10.34,5.15-15h134.88c2.23,4.66,3.99,9.64,5.15,15Z"/><path class="cls-1" d="M171.02,276.61c-1.18,5.36-2.94,10.34-5.18,15H31.07c-2.24-4.66-4-9.64-5.18-15h145.14Z"/></svg>