<?xml version="1.0" encoding="UTF-8"?><svg id="Layer_1" xmlns="http://www.w3.org/2000/svg" viewBox="0 0 500 500"><defs><style>.cls-1{fill:#031072;}</style></defs><path class="cls-1" d="M142.91,88.73c-2.26,0-4.53-.86-6.25-2.59-3.45-3.45-3.45-9.06,0-12.51l29.6-29.6c3.46-3.45,9.05-3.45,12.51,0,3.45,3.45,3.45,9.06,0,12.51l-29.6,29.6c-1.73,1.73-3.99,2.59-6.25,2.59Z"/><path class="cls-1" d="M174.82,137.33c-6.84,0-12.38-5.54-12.38-12.38V52.77c0-6.84,5.54-12.38,12.38-12.38s12.38,5.54,12.38,12.38v72.18c0,6.84-5.54,12.38-12.38,12.38Z"/><path class="cls-1" d="M357.09,88.34c-2.26,0-4.53-.86-6.25-2.59l-29.6-29.6c-3.45-3.45-3.45-9.06,0-12.51,3.46-3.45,9.05-3.45,12.51,0l29.6,29.6c3.45,3.45,3.45,9.06,0,12.51-1.73,1.73-3.99,2.59-6.25,2.59Z"/><path class="cls-1" d="M337.76,122.93c0,35.56-19.73,59.03-44.28,77.62-7.57-5.07-15.21-9.76-22.53-14.21,8.21-5.64,15.73-11.52,22.13-17.99,13.59-13.73,19.91-28.16,19.91-45.42,0-6.84,5.55-12.38,12.38-12.38s12.38,5.55,12.38,12.38Z"/><path class="cls-1" d="M337.76,487.62c0,6.84-5.55,12.38-12.38,12.38s-12.38-5.55-12.38-12.38c0-17.26-6.32-31.69-19.91-45.42-6.4-6.47-13.92-12.34-22.13-17.98-6.55-4.51-13.54-8.87-20.76-13.28-2.12-1.29-4.26-2.59-6.42-3.9-5.66-3.43-11.44-6.93-17.17-10.59-6.71-4.27-13.37-8.75-19.7-13.55-14.99-11.36-28.19-24.53-36.19-41.17-2.64-5.5-4.72-11.38-6.11-17.69-1.29-5.86-1.98-12.1-1.98-18.76s.68-12.81,1.95-18.63c1.37-6.32,3.44-12.19,6.08-17.69,7.99-16.7,21.22-29.92,36.25-41.3,7.57,5.08,15.21,9.77,22.54,14.21-8.21,5.64-15.73,11.52-22.13,17.98-2.96,3-5.58,6.02-7.86,9.1-4.19,5.67-7.25,11.52-9.24,17.69-1.9,5.88-2.82,12.05-2.82,18.63s.94,12.85,2.87,18.76c2,6.17,5.08,12.03,9.3,17.69,2.25,3.03,4.84,6.02,7.76,8.97,6.4,6.47,13.91,12.34,22.12,17.99,6.55,4.5,13.54,8.86,20.76,13.27,2.12,1.29,4.26,2.59,6.42,3.9,5.66,3.43,11.44,6.93,17.17,10.59,6.71,4.27,13.37,8.75,19.7,13.55,24.55,18.59,44.28,42.06,44.28,77.62Z"/><path class="cls-1" d="M337.76,305.27c0,6.66-.69,12.91-1.98,18.76-1.39,6.32-3.47,12.19-6.11,17.69-8,16.64-21.19,29.81-36.19,41.17-7.57-5.07-15.21-9.76-22.53-14.21,8.21-5.64,15.73-11.52,22.13-17.99,2.92-2.95,5.51-5.94,7.76-8.97,4.22-5.66,7.3-11.52,9.29-17.69,1.93-5.91,2.87-12.13,2.87-18.76s-.92-12.75-2.82-18.63c-1.97-6.17-5.03-12.02-9.23-17.69-2.28-3.08-4.9-6.1-7.86-9.1-6.4-6.47-13.92-12.34-22.13-17.98-6.55-4.51-13.54-8.86-20.76-13.27-2.12-1.3-4.26-2.59-6.42-3.9-5.67-3.44-11.45-6.94-17.18-10.59-6.71-4.28-13.37-8.76-19.69-13.56-23.44-17.75-42.49-39.95-44.16-72.88-.08-1.56-.12-3.13-.12-4.74,0-6.84,5.55-12.38,12.38-12.38,6.13,0,11.22,4.45,12.21,10.3.11.68.18,1.38.18,2.09,0,17.27,6.33,31.69,19.92,45.42,6.4,6.47,13.91,12.34,22.12,17.99,6.55,4.5,13.54,8.86,20.76,13.27,2.12,1.29,4.26,2.59,6.42,3.9,5.67,3.44,11.45,6.94,17.18,10.6,6.71,4.26,13.37,8.74,19.69,13.54,15.03,11.38,28.26,24.6,36.25,41.3,2.64,5.5,4.71,11.38,6.08,17.69,1.27,5.82,1.95,12.01,1.95,18.63Z"/><path class="cls-1" d="M229.43,424.21c-8.21,5.64-15.73,11.52-22.13,17.98-13.59,13.73-19.92,28.16-19.92,45.42,0,6.84-5.55,12.38-12.38,12.38s-12.38-5.55-12.38-12.38c0-35.56,19.73-59.03,44.28-77.62,7.57,5.08,15.21,9.77,22.54,14.21Z"/><path class="cls-1" d="M325.32,137.33c-6.84,0-12.38-5.54-12.38-12.38V52.77c0-6.84,5.54-12.38,12.38-12.38s12.38,5.54,12.38,12.38v72.18c0,6.84-5.54,12.38-12.38,12.38Z"/><path class="cls-1" d="M250.19,159.02c-6.84,0-12.38-5.54-12.38-12.38V12.38c0-6.84,5.54-12.38,12.38-12.38s12.38,5.54,12.38,12.38v134.25c0,6.84-5.54,12.38-12.38,12.38Z"/><path class="cls-1" d="M218.8,47.73c-2.26,0-4.53-.86-6.25-2.59-3.45-3.45-3.45-9.06,0-12.51l29.6-29.6c3.46-3.45,9.05-3.45,12.51,0,3.45,3.45,3.45,9.06,0,12.51l-29.6,29.6c-1.73,1.73-3.99,2.59-6.25,2.59Z"/><path class="cls-1" d="M282.13,48.43c-2.26,0-4.53-.86-6.25-2.59l-29.6-29.6c-3.45-3.45-3.45-9.06,0-12.51,3.46-3.45,9.05-3.45,12.51,0l29.6,29.6c3.45,3.45,3.45,9.06,0,12.51-1.73,1.73-3.99,2.59-6.25,2.59Z"/><path class="cls-1" d="M335.8,286.64h-171.23c1.37-6.32,3.44-12.19,6.08-17.69h159.08c2.64,5.5,4.71,11.38,6.08,17.69Z"/><path class="cls-1" d="M335.78,324.03c-1.39,6.32-3.47,12.19-6.11,17.69h-158.96c-2.64-5.5-4.72-11.38-6.11-17.69h171.18Z"/></svg>