<svg width="32" height="26" viewBox="0 0 32 26" fill="none" xmlns="http://www.w3.org/2000/svg">
<path d="M31.8298 3.05882C30.6383 3.56863 29.4468 3.9085 28.0851 4.07843C29.4468 3.22876 30.4681 2.03922 30.9787 0.509804C29.7872 1.18954 28.2553 1.86928 26.8936 2.03922C25.5319 0.849673 23.8298 0 21.9574 0C18.383 0 15.3191 2.88889 15.3191 6.62745C15.3191 7.13726 15.3191 7.64706 15.4894 8.15686C10.0426 7.81699 5.2766 5.26797 2.04255 1.35948C1.53191 2.20915 1.19149 3.22876 1.19149 4.4183C1.19149 6.62745 2.38298 8.66667 4.08511 9.85621C3.06383 9.85621 2.04255 9.51634 1.19149 9.00654C1.19149 12.2353 3.40426 14.7843 6.46809 15.4641C5.95745 15.634 5.2766 15.634 4.76596 15.634C4.42553 15.634 3.91489 15.634 3.57447 15.4641C4.42553 18.0131 6.80851 19.8824 9.70213 20.0523C7.48936 21.7516 4.59574 22.9412 1.53191 22.9412C1.02128 22.9412 0.510638 22.9412 0 22.7712C2.89362 24.6405 6.29787 25.6601 10.0426 25.6601C22.1277 25.6601 28.766 15.634 28.766 6.96732C28.766 6.62745 28.766 6.45752 28.766 6.11765C29.7872 5.60784 30.9787 4.4183 31.8298 3.05882Z" fill="#55ACEE"/>
</svg>
