<?xml version="1.0" encoding="UTF-8"?>
<svg id="a" data-name="Layer 1" xmlns="http://www.w3.org/2000/svg" viewBox="0 0 591.011 327.2">
  <path d="M230.616,299.304c1.403-1.322,1.917-.765.998.998-36.706,29.063-85.515,31.563-129.973,21.639-36.896-8.236-82.325-30.987-83.661-74.028l-.121-223.359c-.696-4.917-3.048-9.265-5.443-13.517L0,0h67.388c2.806,0,13.412,4.846,16.392,6.565,19.079,11.011,27.768,31.371,29.08,52.748,4.132,67.311-3.164,138.852-.084,206.604,2.673,52.771,84.078,52.762,117.84,33.386Z" fill="#fff"/>
  <path d="M229.617,197.541v42.401c0,.346,2.055,4.783,2.534,5.45,5.405,7.527,23.423,5.275,23.423-5.45v-42.401c3.621.377,7.999-.539,11.483-.004,3.634.558,1.482,2.78,1.446,5.431-.154,11.553,2.14,37.538-2.198,46.7-7.183,15.172-39.172,15.36-47.071.651-.442-.823-2.595-6.041-2.595-6.386v-46.392h12.978Z" fill="#fff"/>
  <path d="M229.617,127.703v41.404c0,1.316,2.242,6.309,3.473,7.504,6.209,6.023,22.484,3.219,22.484-6.506v-42.401h12.978v46.392c0,3.097-6.233,11.128-9.03,12.924-7.689,4.936-25.443,5.031-33.255.4-3.056-1.812-9.628-9.986-9.628-13.325v-46.392h12.978Z" fill="#fff"/>
  <path d="M405.324,170.603h-32.945c1.383,10.478,11.044,14.494,19.519,7.992.958-.735,1.111-2.768,2.146-3.025,1.395-.346,7.107-.2,8.803.019,1.167.151,1.993-.407,1.451,1.464-5.383,18.6-36.65,18.52-42.622-1.242-11.367-37.614,46.587-45.854,43.648-5.209Z" fill="#fff"/>
  <path d="M425.291,240.441h-32.945c1.455,8.547,7.116,13.278,16.027,10.525,3.29-1.017,4.8-5.348,5.643-5.555,1.42-.348,7.091-.205,8.799.016,1.151.149,2.01-.393,1.455,1.469-5.653,18.944-36.621,18.587-42.626-1.246-11.212-37.028,46.186-45.702,43.648-5.208Z" fill="#fff"/>
  <path d="M568.066,244.424l10.467-28.928c1.796-2.154,9.468-.495,12.478-.989l-20.126,54.204c-3.82,6.131-11.53,7.554-18.357,6.694-5.31-.669-3.557-5.617-2.974-10.075.71-1.24,4.201.251,5.993.125,5.229-.367,6.034-2.707,5.555-7.569-.946-9.597-11.419-27.942-14.326-38.58-.436-1.595-.905-3.116-.687-4.799,2.986.483,10.732-1.143,12.497.978,3.163,3.802,6.439,23.35,9.481,28.941Z" fill="#fff"/>
  <path d="M317.471,259.397h-12.978v-31.427c0-4.615-11.095-6.312-14.447-2.466-.436.501-2.524,5.158-2.524,5.459v28.434l-12.978-.01.435-43.914c.961-1.335,11.135-1.391,11.549-.977.586.585-.855,5.025.489,5.986,6.744-9.586,24.905-9.853,28.977,1.98.237.69,1.477,6.172,1.477,6.506v30.429Z" fill="#fff"/>
  <path d="M332.448,157.629c-2.979-.44-7.687.753-10.324-.156-1.537-.53-2.107-3.146-3.668-4.316-4.831-3.621-15.596-.608-11.856,4.844,4.482,6.533,28.998,1.582,27.633,18.8-1.58,19.926-40.765,17.029-41.724,1.198-.267-4.403,7.31-4.34,10.356-3.276,1.491.521,1.923,3.764,3.559,5.422,4.781,4.848,17.174,2.751,14.877-4.852-2.158-7.145-31.484-1.843-27.559-20.926,3.159-15.357,39.192-15.165,38.705,3.261Z" fill="#fff"/>
  <path d="M495.836,218.829c1.299,1.293,4.569,7.375,3.335,8.638-3.092-.579-8.786.805-11.372.071-.971-.276-.407-2.632-2.179-3.978-7.53-5.723-18.835,1.774-10.336,6.331,10.199,5.468,28.215.482,24.643,19.796-2.915,15.76-41.649,15.169-40.695-4.252,2.104.396,11.072-.618,11.881.095.354.312.239,3.158,1.392,4.612,5.412,6.827,22.016-.899,13.996-6.774-5.205-3.812-23.445-2.754-26.062-11.609-5.667-19.174,24.995-23.279,35.396-12.929Z" fill="#fff"/>
  <path d="M263.561,38.91c-.127.118.291,1.358-.182,1.765-1.033.888-23.273.177-26.785-.256-7.281-13.912-16.983-26.136-30.631-34.239l-14.282-6.18h27.454c1.515,0,13.053,5.536,15.168,6.791,12.971,7.694,21.31,19.726,29.258,32.119Z" fill="#fff"/>
  <path d="M351.282,214.63c1.315.851,8.011,29.812,9.616,29.811,2.453-3.463,8.155-28.861,9.623-29.802s9.367.383,11.837-.132c-1.795,5.215-13.361,43.993-15.607,44.753-1.491.504-12.817.445-13.454-.456l-14.878-43.79c-.011-.694,12.156-.841,12.861-.384Z" fill="#fff"/>
  <path d="M523.128,201.531l11.985-.005c.336,2.002-.469,12.521-.01,12.98.375.376,7.411-.28,8.995-.01v8.989s-8.99-.005-8.99-.005v24.443c0,3.325,8.638,2.147,8.99,2.489.327.317.294,8.472-.587,9.096-3.228,2.29-14.47.388-17.629-2.09-.433-.339-2.755-3.287-2.755-3.51v-52.378Z" fill="#fff"/>
  <path d="M338.436,131.694l11.985-.005c.336,2.002-.469,12.521-.01,12.98.375.376,7.411-.28,8.995-.01v7.992s-8.99-.005-8.99-.005v25.441c0,3.326,8.638,2.147,8.99,2.489.359.35-.265,7.407-.005,8.984h-14.476c-1.275,0-6.489-4.251-6.489-5.487v-52.378Z" fill="#fff"/>
  <rect x="275.541" y="127.703" width="11.98" height="61.856" fill="#fff"/>
  <path d="M428.286,214.501c17.27-3.11,10.258,7.365,10.982,7.972,2.013,1.687,2.377-2.574,3.539-3.922,2.963-3.436,9.961-5.583,14.434-5.052v11.982c-8.212-1.828-16.975,2.324-16.975,11.468v22.448h-11.98v-44.896Z" fill="#fff"/>
  <path d="M422.296,151.647c.424-.636.299-1.815,1.408-3.04,3.522-3.891,9.4-5.555,14.57-4.946l-.012,11.974c-6.974-3.341-16.965,2.921-16.965,10.479v23.445h-11.98v-44.896c2.847.561,8.703-.779,10.982,0-.015,3.694.65,6.022,1.997,6.984Z" fill="#fff"/>
  <path d="M263.561,38.91c1.645-11.136-3.858-23.007-11.962-30.43.032-1.32,14.632-8.479,16.455-8.479h33.444l-11.65,4.82c-7.775,4.124-13.075,9.937-17.471,17.46-3.003,5.14-4.381,11.369-6.856,15.889-.609,1.112-1.825.615-1.96.741Z" fill="#fff"/>
  <path d="M517.138,214.501v44.896h-12.978v-43.399c0-2.441,10.729-1.249,12.978-1.497Z" fill="#fff"/>
  <rect x="323.461" y="214.501" width="11.98" height="44.896" fill="#fff"/>
  <path d="M517.143,197.535v9.987s-12.989,0-12.989,0c-1.642-12.625,2.849-9.938,12.989-9.987Z" fill="#fff"/>
  <rect x="323.456" y="197.535" width="11.99" height="9.987" fill="#fff"/>
  <path d="M422.296,151.647c-.526.788-.251,1.385-1.991.993l-.005-7.976c2.289.783-.291,5.605,1.997,6.984Z" fill="#fff"/>
  <path d="M230.616,299.304c1.102-.633,3.862-4.039,4.986-2.988,1.65,1.542-2.717,2.979-3.988,3.986l-.998-.998Z" fill="#fff"/>
  <path d="M392.346,162.622h-18.469c-2.865,0,.285-5.322,1.432-6.551,6.428-6.892,17.485-2.976,17.038,6.551Z" fill="#fff"/>
  <path d="M412.313,232.459h-18.968c-.436-12.704,19.521-13.097,18.968,0Z" fill="#fff"/>
</svg>