<?xml version="1.0" encoding="UTF-8"?>
<svg xmlns="http://www.w3.org/2000/svg" viewBox="0 0 500 500">
  <defs>
    <style>.bg{fill:#010737}.logo{fill:#fff}</style>
  </defs>
  <rect class="bg" width="500" height="500"/>
  <path class="logo" d="M169.68,129.05c-1.7,0-3.4-.65-4.69-1.94-2.59-2.59-2.59-6.79,0-9.38l22.2-22.2c2.59-2.59,6.79-2.59,9.38,0,2.59,2.59,2.59,6.79,0,9.38l-22.2,22.2c-1.3,1.3-2.99,1.94-4.69,1.94Z"/>
  <path class="logo" d="M193.62,165.5c-5.13,0-9.29-4.16-9.29-9.29v-54.14c0-5.13,4.16-9.29,9.29-9.29s9.29,4.16,9.29,9.29v54.14c0,5.13-4.16,9.29-9.29,9.29Z"/>
  <path class="logo" d="M330.32,128.75c-1.7,0-3.4-.65-4.69-1.94l-22.2-22.2c-2.59-2.59-2.59-6.79,0-9.38,2.59-2.59,6.79-2.59,9.38,0l22.2,22.2c2.59,2.59,2.59,6.79,0,9.38-1.3,1.3-2.99,1.94-4.69,1.94Z"/>
  <path class="logo" d="M315.82,154.7c0,26.67-14.8,44.27-33.21,58.22-5.68-3.8-11.41-7.32-16.9-10.65,6.16-4.23,11.8-8.64,16.6-13.49,10.19-10.3,14.93-21.12,14.93-34.07,0-5.13,4.16-9.29,9.29-9.29s9.29,4.16,9.29,9.29Z"/>
  <path class="logo" d="M315.82,428.21c0,5.13-4.16,9.29-9.29,9.29s-9.29-4.16-9.29-9.29c0-12.94-4.74-23.77-14.93-34.07-4.8-4.85-10.44-9.25-16.6-13.49-4.92-3.38-10.16-6.65-15.57-9.96-1.59-.97-3.2-1.94-4.82-2.93-4.25-2.57-8.58-5.2-12.88-7.94-5.04-3.2-10.02-6.56-14.77-10.16-11.25-8.52-21.14-18.4-27.14-30.88-1.98-4.13-3.54-8.53-4.58-13.27-.97-4.39-1.49-9.08-1.49-14.07s.51-9.61,1.47-13.97c1.03-4.74,2.58-9.14,4.56-13.27,5.99-12.53,15.92-22.44,27.19-30.98,5.68,3.81,11.41,7.32,16.9,10.66-6.16,4.23-11.8,8.64-16.6,13.49-2.22,2.25-4.19,4.52-5.9,6.83-3.14,4.25-5.44,8.64-6.93,13.27-1.43,4.41-2.12,9.04-2.12,13.97s.7,9.64,2.15,14.07c1.5,4.63,3.81,9.02,6.97,13.27,1.69,2.28,3.63,4.51,5.82,6.73,4.8,4.86,10.44,9.25,16.59,13.49,4.91,3.38,10.16,6.65,15.57,9.95,1.59.97,3.2,1.94,4.82,2.93,4.25,2.58,8.58,5.21,12.88,7.95,5.04,3.2,10.02,6.55,14.77,10.16,18.41,13.95,33.21,31.55,33.21,58.22Z"/>
  <path class="logo" d="M315.82,291.45c0,5-.52,9.68-1.49,14.07-1.04,4.74-2.6,9.14-4.58,13.27-6,12.48-15.9,22.36-27.14,30.88-5.68-3.8-11.4-7.32-16.9-10.65,6.16-4.23,11.8-8.64,16.6-13.49,2.19-2.22,4.13-4.45,5.82-6.73,3.16-4.25,5.47-8.64,6.97-13.27,1.45-4.43,2.15-9.1,2.15-14.07s-.69-9.56-2.12-13.97c-1.48-4.63-3.77-9.02-6.92-13.27-1.71-2.31-3.68-4.58-5.9-6.83-4.8-4.85-10.44-9.25-16.6-13.49-4.92-3.38-10.16-6.65-15.57-9.95-1.59-.98-3.2-1.94-4.82-2.93-4.25-2.58-8.58-5.21-12.88-7.94-5.04-3.21-10.02-6.57-14.77-10.17-17.58-13.31-31.86-29.96-33.12-54.66-.06-1.17-.09-2.35-.09-3.56,0-5.13,4.16-9.29,9.29-9.29,4.6,0,8.41,3.34,9.16,7.72.09.51.13,1.03.13,1.57,0,12.95,4.75,23.77,14.94,34.07,4.8,4.86,10.44,9.25,16.59,13.49,4.91,3.38,10.16,6.65,15.57,9.95,1.59.97,3.2,1.94,4.82,2.93,4.25,2.58,8.58,5.21,12.88,7.95,5.04,3.2,10.02,6.55,14.77,10.16,11.27,8.54,21.2,18.45,27.19,30.98,1.98,4.13,3.53,8.53,4.56,13.27.96,4.37,1.47,9.01,1.47,13.97Z"/>
  <path class="logo" d="M234.58,380.66c-6.16,4.23-11.8,8.64-16.6,13.49-10.19,10.3-14.94,21.12-14.94,34.07,0,5.13-4.16,9.29-9.29,9.29s-9.29-4.16-9.29-9.29c0-26.67,14.8-44.27,33.21-58.22,5.68,3.81,11.41,7.32,16.9,10.66Z"/>
  <path class="logo" d="M306.49,165.5c-5.13,0-9.29-4.16-9.29-9.29v-54.14c0-5.13,4.16-9.29,9.29-9.29s9.29,4.16,9.29,9.29v54.14c0,5.13-4.16,9.29-9.29,9.29Z"/>
  <path class="logo" d="M250.14,181.77c-5.13,0-9.29-4.16-9.29-9.29v-100.69c0-5.13,4.16-9.29,9.29-9.29s9.29,4.16,9.29,9.29v100.69c0,5.13-4.16,9.29-9.29,9.29Z"/>
  <path class="logo" d="M226.6,98.29c-1.7,0-3.4-.65-4.69-1.94-2.59-2.59-2.59-6.79,0-9.38l22.2-22.2c2.59-2.59,6.79-2.59,9.38,0,2.59,2.59,2.59,6.79,0,9.38l-22.2,22.2c-1.3,1.3-2.99,1.94-4.69,1.94Z"/>
  <path class="logo" d="M274.1,98.83c-1.7,0-3.4-.65-4.69-1.94l-22.2-22.2c-2.59-2.59-2.59-6.79,0-9.38,2.59-2.59,6.79-2.59,9.38,0l22.2,22.2c2.59,2.59,2.59,6.79,0,9.38-1.3,1.3-2.99,1.94-4.69,1.94Z"/>
  <path class="logo" d="M314.35,277.48h-128.43c1.03-4.74,2.58-9.14,4.56-13.27h119.31c1.98,4.13,3.53,8.53,4.56,13.27Z"/>
  <path class="logo" d="M314.33,305.53c-1.04,4.74-2.6,9.14-4.58,13.27h-119.22c-1.98-4.13-3.54-8.53-4.58-13.27h128.39Z"/>
</svg> 